<?xml version="1.0" encoding="utf-8" standalone="no"?>
<!DOCTYPE svg PUBLIC "-//W3C//DTD SVG 1.1//EN"
  "http://www.w3.org/Graphics/SVG/1.1/DTD/svg11.dtd">
<svg height="732.24pt" version="1.1" viewBox="0 0 1382.4 732.24" width="1382.4pt" xmlns="http://www.w3.org/2000/svg" xmlns:xlink="http://www.w3.org/1999/xlink">
 <metadata>
  <rdf:RDF xmlns:cc="http://creativecommons.org/ns#" xmlns:dc="http://purl.org/dc/elements/1.1/" xmlns:rdf="http://www.w3.org/1999/02/22-rdf-syntax-ns#">
   <cc:Work>
    <dc:type rdf:resource="http://purl.org/dc/dcmitype/StillImage"/>
    <dc:date>2021-06-16T10:18:07.348524</dc:date>
    <dc:format>image/svg+xml</dc:format>
    <dc:creator>
     <cc:Agent>
      <dc:title>Matplotlib v3.4.2, https://matplotlib.org/</dc:title>
     </cc:Agent>
    </dc:creator>
   </cc:Work>
  </rdf:RDF>
 </metadata>
 <defs>
  <style type="text/css">*{stroke-linecap:butt;stroke-linejoin:round;}</style>
 </defs>
 <g id="figure_1">
  <g id="patch_1">
   <path d="M 0 732.24 
L 1382.4 732.24 
L 1382.4 0 
L 0 0 
z
" style="fill:#ffffff;"/>
  </g>
  <g id="patch_2">
   <path d="M 172.8 613.272109 
L 659.781818 613.272109 
L 659.781818 126.290291 
L 172.8 126.290291 
z
" style="fill:#ffffff;"/>
  </g>
  <g id="pane3d_1">
   <g id="patch_3">
    <path d="M 641.304286 478.090674 
L 441.139949 383.985397 
L 441.736622 180.278378 
L 649.054958 260.126766 
" style="fill:#f2f2f2;opacity:0.5;stroke:#f2f2f2;stroke-linejoin:miter;"/>
   </g>
  </g>
  <g id="pane3d_2">
   <g id="patch_4">
    <path d="M 207.42555 461.381013 
L 441.139949 383.985397 
L 441.736622 180.278378 
L 199.889016 245.916766 
" style="fill:#e6e6e6;opacity:0.5;stroke:#e6e6e6;stroke-linejoin:miter;"/>
   </g>
  </g>
  <g id="pane3d_3">
   <g id="patch_5">
    <path d="M 401.600003 569.460346 
L 641.304286 478.090674 
L 441.139949 383.985397 
L 207.42555 461.381013 
" style="fill:#ececec;opacity:0.5;stroke:#ececec;stroke-linejoin:miter;"/>
   </g>
  </g>
  <g id="axis3d_1">
   <g id="line2d_1">
    <path d="M 641.304286 478.090674 
L 401.600003 569.460346 
" style="fill:none;stroke:#000000;stroke-linecap:square;stroke-width:0.8;"/>
   </g>
   <g id="Line3DCollection_1">
    <path d="M 417.916639 563.240825 
L 223.249572 456.140814 
L 216.297991 241.463306 
" style="fill:none;stroke:#b0b0b0;stroke-width:0.8;"/>
    <path d="M 445.531434 552.714711 
L 250.05877 447.262823 
L 244.086835 233.921305 
" style="fill:none;stroke:#b0b0b0;stroke-width:0.8;"/>
    <path d="M 472.705102 542.356744 
L 276.474277 438.515204 
L 271.453609 226.493855 
" style="fill:none;stroke:#b0b0b0;stroke-width:0.8;"/>
    <path d="M 499.448129 532.162926 
L 302.504705 429.895106 
L 298.407857 219.178366 
" style="fill:none;stroke:#b0b0b0;stroke-width:0.8;"/>
    <path d="M 525.770673 522.129388 
L 328.15841 421.399762 
L 324.958835 211.972327 
" style="fill:none;stroke:#b0b0b0;stroke-width:0.8;"/>
    <path d="M 551.682573 512.252377 
L 353.443514 413.026481 
L 351.115527 204.873298 
" style="fill:none;stroke:#b0b0b0;stroke-width:0.8;"/>
    <path d="M 577.193364 502.52826 
L 378.367904 404.772653 
L 376.886651 197.878914 
" style="fill:none;stroke:#b0b0b0;stroke-width:0.8;"/>
    <path d="M 602.312288 492.953513 
L 402.939243 396.635739 
L 402.28067 190.986878 
" style="fill:none;stroke:#b0b0b0;stroke-width:0.8;"/>
    <path d="M 627.048305 483.524721 
L 427.164981 388.613273 
L 427.305801 184.194959 
" style="fill:none;stroke:#b0b0b0;stroke-width:0.8;"/>
   </g>
   <g id="xtick_1">
    <g id="line2d_2">
     <path d="M 416.22155 562.308238 
L 421.314088 565.11 
" style="fill:none;stroke:#000000;stroke-linecap:square;stroke-width:0.8;"/>
    </g>
    <g id="text_1">
     <!-- 0.0 -->
     <g transform="translate(419.610186 586.232577)scale(0.1 -0.1)">
      <defs>
       <path d="M 2034 4250 
Q 1547 4250 1301 3770 
Q 1056 3291 1056 2328 
Q 1056 1369 1301 889 
Q 1547 409 2034 409 
Q 2525 409 2770 889 
Q 3016 1369 3016 2328 
Q 3016 3291 2770 3770 
Q 2525 4250 2034 4250 
z
M 2034 4750 
Q 2819 4750 3233 4129 
Q 3647 3509 3647 2328 
Q 3647 1150 3233 529 
Q 2819 -91 2034 -91 
Q 1250 -91 836 529 
Q 422 1150 422 2328 
Q 422 3509 836 4129 
Q 1250 4750 2034 4750 
z
" id="DejaVuSans-30" transform="scale(0.015625)"/>
       <path d="M 684 794 
L 1344 794 
L 1344 0 
L 684 0 
L 684 794 
z
" id="DejaVuSans-2e" transform="scale(0.015625)"/>
      </defs>
      <use xlink:href="#DejaVuSans-30"/>
      <use x="63.623047" xlink:href="#DejaVuSans-2e"/>
      <use x="95.410156" xlink:href="#DejaVuSans-30"/>
     </g>
    </g>
   </g>
   <g id="xtick_2">
    <g id="line2d_3">
     <path d="M 443.830443 551.797075 
L 448.940653 554.553887 
" style="fill:none;stroke:#000000;stroke-linecap:square;stroke-width:0.8;"/>
    </g>
    <g id="text_2">
     <!-- 0.5 -->
     <g transform="translate(447.212593 575.557281)scale(0.1 -0.1)">
      <defs>
       <path d="M 691 4666 
L 3169 4666 
L 3169 4134 
L 1269 4134 
L 1269 2991 
Q 1406 3038 1543 3061 
Q 1681 3084 1819 3084 
Q 2600 3084 3056 2656 
Q 3513 2228 3513 1497 
Q 3513 744 3044 326 
Q 2575 -91 1722 -91 
Q 1428 -91 1123 -41 
Q 819 9 494 109 
L 494 744 
Q 775 591 1075 516 
Q 1375 441 1709 441 
Q 2250 441 2565 725 
Q 2881 1009 2881 1497 
Q 2881 1984 2565 2268 
Q 2250 2553 1709 2553 
Q 1456 2553 1204 2497 
Q 953 2441 691 2322 
L 691 4666 
z
" id="DejaVuSans-35" transform="scale(0.015625)"/>
      </defs>
      <use xlink:href="#DejaVuSans-30"/>
      <use x="63.623047" xlink:href="#DejaVuSans-2e"/>
      <use x="95.410156" xlink:href="#DejaVuSans-35"/>
     </g>
    </g>
   </g>
   <g id="xtick_3">
    <g id="line2d_4">
     <path d="M 470.998612 541.453703 
L 476.125282 544.166637 
" style="fill:none;stroke:#000000;stroke-linecap:square;stroke-width:0.8;"/>
    </g>
    <g id="text_3">
     <!-- 1.0 -->
     <g transform="translate(474.373035 565.052916)scale(0.1 -0.1)">
      <defs>
       <path d="M 794 531 
L 1825 531 
L 1825 4091 
L 703 3866 
L 703 4441 
L 1819 4666 
L 2450 4666 
L 2450 531 
L 3481 531 
L 3481 0 
L 794 0 
L 794 531 
z
" id="DejaVuSans-31" transform="scale(0.015625)"/>
      </defs>
      <use xlink:href="#DejaVuSans-31"/>
      <use x="63.623047" xlink:href="#DejaVuSans-2e"/>
      <use x="95.410156" xlink:href="#DejaVuSans-30"/>
     </g>
    </g>
   </g>
   <g id="xtick_4">
    <g id="line2d_5">
     <path d="M 497.736529 531.274135 
L 502.878496 533.944231 
" style="fill:none;stroke:#000000;stroke-linecap:square;stroke-width:0.8;"/>
    </g>
    <g id="text_4">
     <!-- 1.5 -->
     <g transform="translate(501.102042 554.71541)scale(0.1 -0.1)">
      <use xlink:href="#DejaVuSans-31"/>
      <use x="63.623047" xlink:href="#DejaVuSans-2e"/>
      <use x="95.410156" xlink:href="#DejaVuSans-35"/>
     </g>
    </g>
   </g>
   <g id="xtick_5">
    <g id="line2d_6">
     <path d="M 524.054333 521.254511 
L 529.210484 523.882775 
" style="fill:none;stroke:#000000;stroke-linecap:square;stroke-width:0.8;"/>
    </g>
    <g id="text_5">
     <!-- 2.0 -->
     <g transform="translate(527.409813 544.540817)scale(0.1 -0.1)">
      <defs>
       <path d="M 1228 531 
L 3431 531 
L 3431 0 
L 469 0 
L 469 531 
Q 828 903 1448 1529 
Q 2069 2156 2228 2338 
Q 2531 2678 2651 2914 
Q 2772 3150 2772 3378 
Q 2772 3750 2511 3984 
Q 2250 4219 1831 4219 
Q 1534 4219 1204 4116 
Q 875 4013 500 3803 
L 500 4441 
Q 881 4594 1212 4672 
Q 1544 4750 1819 4750 
Q 2544 4750 2975 4387 
Q 3406 4025 3406 3419 
Q 3406 3131 3298 2873 
Q 3191 2616 2906 2266 
Q 2828 2175 2409 1742 
Q 1991 1309 1228 531 
z
" id="DejaVuSans-32" transform="scale(0.015625)"/>
      </defs>
      <use xlink:href="#DejaVuSans-32"/>
      <use x="63.623047" xlink:href="#DejaVuSans-2e"/>
      <use x="95.410156" xlink:href="#DejaVuSans-30"/>
     </g>
    </g>
   </g>
   <g id="xtick_6">
    <g id="line2d_7">
     <path d="M 549.961848 511.391091 
L 555.131116 513.978499 
" style="fill:none;stroke:#000000;stroke-linecap:square;stroke-width:0.8;"/>
    </g>
    <g id="text_6">
     <!-- 2.5 -->
     <g transform="translate(553.306229 534.525317)scale(0.1 -0.1)">
      <use xlink:href="#DejaVuSans-32"/>
      <use x="63.623047" xlink:href="#DejaVuSans-2e"/>
      <use x="95.410156" xlink:href="#DejaVuSans-35"/>
     </g>
    </g>
   </g>
   <g id="xtick_7">
    <g id="line2d_8">
     <path d="M 575.468595 501.68025 
L 580.649957 504.227747 
" style="fill:none;stroke:#000000;stroke-linecap:square;stroke-width:0.8;"/>
    </g>
    <g id="text_7">
     <!-- 3.0 -->
     <g transform="translate(578.800861 524.665208)scale(0.1 -0.1)">
      <defs>
       <path d="M 2597 2516 
Q 3050 2419 3304 2112 
Q 3559 1806 3559 1356 
Q 3559 666 3084 287 
Q 2609 -91 1734 -91 
Q 1441 -91 1130 -33 
Q 819 25 488 141 
L 488 750 
Q 750 597 1062 519 
Q 1375 441 1716 441 
Q 2309 441 2620 675 
Q 2931 909 2931 1356 
Q 2931 1769 2642 2001 
Q 2353 2234 1838 2234 
L 1294 2234 
L 1294 2753 
L 1863 2753 
Q 2328 2753 2575 2939 
Q 2822 3125 2822 3475 
Q 2822 3834 2567 4026 
Q 2313 4219 1838 4219 
Q 1578 4219 1281 4162 
Q 984 4106 628 3988 
L 628 4550 
Q 988 4650 1302 4700 
Q 1616 4750 1894 4750 
Q 2613 4750 3031 4423 
Q 3450 4097 3450 3541 
Q 3450 3153 3228 2886 
Q 3006 2619 2597 2516 
z
" id="DejaVuSans-33" transform="scale(0.015625)"/>
      </defs>
      <use xlink:href="#DejaVuSans-33"/>
      <use x="63.623047" xlink:href="#DejaVuSans-2e"/>
      <use x="95.410156" xlink:href="#DejaVuSans-30"/>
     </g>
    </g>
   </g>
   <g id="xtick_8">
    <g id="line2d_9">
     <path d="M 600.583801 492.118475 
L 605.776277 494.626977 
" style="fill:none;stroke:#000000;stroke-linecap:square;stroke-width:0.8;"/>
    </g>
    <g id="text_8">
     <!-- 3.5 -->
     <g transform="translate(603.90299 514.9569)scale(0.1 -0.1)">
      <use xlink:href="#DejaVuSans-33"/>
      <use x="63.623047" xlink:href="#DejaVuSans-2e"/>
      <use x="95.410156" xlink:href="#DejaVuSans-35"/>
     </g>
    </g>
   </g>
   <g id="xtick_9">
    <g id="line2d_10">
     <path d="M 625.316414 482.702359 
L 630.519063 485.172756 
" style="fill:none;stroke:#000000;stroke-linecap:square;stroke-width:0.8;"/>
    </g>
    <g id="text_9">
     <!-- 4.0 -->
     <g transform="translate(628.621609 505.396916)scale(0.1 -0.1)">
      <defs>
       <path d="M 2419 4116 
L 825 1625 
L 2419 1625 
L 2419 4116 
z
M 2253 4666 
L 3047 4666 
L 3047 1625 
L 3713 1625 
L 3713 1100 
L 3047 1100 
L 3047 0 
L 2419 0 
L 2419 1100 
L 313 1100 
L 313 1709 
L 2253 4666 
z
" id="DejaVuSans-34" transform="scale(0.015625)"/>
      </defs>
      <use xlink:href="#DejaVuSans-34"/>
      <use x="63.623047" xlink:href="#DejaVuSans-2e"/>
      <use x="95.410156" xlink:href="#DejaVuSans-30"/>
     </g>
    </g>
   </g>
  </g>
  <g id="axis3d_2">
   <g id="line2d_11">
    <path d="M 207.42555 461.381013 
L 401.600003 569.460346 
" style="fill:none;stroke:#000000;stroke-linecap:square;stroke-width:0.8;"/>
   </g>
   <g id="Line3DCollection_2">
    <path d="M 634.800727 254.636768 
L 627.576857 471.636859 
L 388.211998 562.008456 
" style="fill:none;stroke:#b0b0b0;stroke-width:0.8;"/>
    <path d="M 596.49158 239.882049 
L 590.658016 454.279833 
L 352.258376 541.996331 
" style="fill:none;stroke:#b0b0b0;stroke-width:0.8;"/>
    <path d="M 559.297847 225.556931 
L 554.778502 437.411435 
L 317.389874 522.588194 
" style="fill:none;stroke:#b0b0b0;stroke-width:0.8;"/>
    <path d="M 523.171514 211.642921 
L 519.895034 421.011318 
L 283.558098 503.757107 
" style="fill:none;stroke:#b0b0b0;stroke-width:0.8;"/>
    <path d="M 488.067281 198.122571 
L 485.966703 405.060251 
L 250.717486 485.477713 
" style="fill:none;stroke:#b0b0b0;stroke-width:0.8;"/>
    <path d="M 453.942377 184.979409 
L 452.954812 389.540038 
L 218.825112 467.726117 
" style="fill:none;stroke:#b0b0b0;stroke-width:0.8;"/>
   </g>
   <g id="xtick_10">
    <g id="line2d_12">
     <path d="M 390.268037 561.232203 
L 384.092574 563.563734 
" style="fill:none;stroke:#000000;stroke-linecap:square;stroke-width:0.8;"/>
    </g>
    <g id="text_10">
     <!-- 0 -->
     <g transform="translate(373.40876 584.093646)scale(0.1 -0.1)">
      <use xlink:href="#DejaVuSans-30"/>
     </g>
    </g>
   </g>
   <g id="xtick_11">
    <g id="line2d_13">
     <path d="M 354.303973 541.243676 
L 348.159988 543.504287 
" style="fill:none;stroke:#000000;stroke-linecap:square;stroke-width:0.8;"/>
    </g>
    <g id="text_11">
     <!-- 1 -->
     <g transform="translate(337.572869 563.825432)scale(0.1 -0.1)">
      <use xlink:href="#DejaVuSans-31"/>
     </g>
    </g>
   </g>
   <g id="xtick_12">
    <g id="line2d_14">
     <path d="M 319.424717 521.858077 
L 313.313139 524.050956 
" style="fill:none;stroke:#000000;stroke-linecap:square;stroke-width:0.8;"/>
    </g>
    <g id="text_12">
     <!-- 2 -->
     <g transform="translate(302.82034 544.16995)scale(0.1 -0.1)">
      <use xlink:href="#DejaVuSans-32"/>
     </g>
    </g>
   </g>
   <g id="xtick_13">
    <g id="line2d_15">
     <path d="M 285.581918 503.048532 
L 279.50355 505.176677 
" style="fill:none;stroke:#000000;stroke-linecap:square;stroke-width:0.8;"/>
    </g>
    <g id="text_13">
     <!-- 3 -->
     <g transform="translate(269.10278 525.09983)scale(0.1 -0.1)">
      <use xlink:href="#DejaVuSans-33"/>
     </g>
    </g>
   </g>
   <g id="xtick_14">
    <g id="line2d_16">
     <path d="M 252.730052 484.789739 
L 246.685587 486.855976 
" style="fill:none;stroke:#000000;stroke-linecap:square;stroke-width:0.8;"/>
    </g>
    <g id="text_14">
     <!-- 4 -->
     <g transform="translate(236.374631 506.589306)scale(0.1 -0.1)">
      <use xlink:href="#DejaVuSans-34"/>
     </g>
    </g>
   </g>
   <g id="xtick_15">
    <g id="line2d_17">
     <path d="M 220.826226 467.057858 
L 214.816254 469.064849 
" style="fill:none;stroke:#000000;stroke-linecap:square;stroke-width:0.8;"/>
    </g>
    <g id="text_15">
     <!-- 5 -->
     <g transform="translate(204.592974 488.614102)scale(0.1 -0.1)">
      <use xlink:href="#DejaVuSans-35"/>
     </g>
    </g>
   </g>
  </g>
  <g id="axis3d_3">
   <g id="line2d_18">
    <path d="M 207.42555 461.381013 
L 199.889016 245.916766 
" style="fill:none;stroke:#000000;stroke-linecap:square;stroke-width:0.8;"/>
   </g>
   <g id="Line3DCollection_3">
    <path d="M 207.279816 457.21456 
L 441.151512 380.037619 
L 641.454091 473.877889 
" style="fill:none;stroke:#b0b0b0;stroke-width:0.8;"/>
    <path d="M 206.275156 428.492045 
L 441.2312 352.831926 
L 642.486881 444.833822 
" style="fill:none;stroke:#b0b0b0;stroke-width:0.8;"/>
    <path d="M 205.261089 399.500582 
L 441.311585 325.387997 
L 643.529477 415.51399 
" style="fill:none;stroke:#b0b0b0;stroke-width:0.8;"/>
    <path d="M 204.237483 370.236377 
L 441.392677 297.702689 
L 644.58202 385.914444 
" style="fill:none;stroke:#b0b0b0;stroke-width:0.8;"/>
    <path d="M 203.2042 340.695562 
L 441.474486 269.772804 
L 645.644652 356.031164 
" style="fill:none;stroke:#b0b0b0;stroke-width:0.8;"/>
    <path d="M 202.161105 310.874197 
L 441.557021 241.595086 
L 646.71752 325.86005 
" style="fill:none;stroke:#b0b0b0;stroke-width:0.8;"/>
    <path d="M 201.108056 280.768265 
L 441.640291 213.166223 
L 647.800771 295.396923 
" style="fill:none;stroke:#b0b0b0;stroke-width:0.8;"/>
    <path d="M 200.044911 250.373676 
L 441.724307 184.48284 
L 648.894558 264.637524 
" style="fill:none;stroke:#b0b0b0;stroke-width:0.8;"/>
   </g>
   <g id="xtick_16">
    <g id="line2d_19">
     <path d="M 209.27814 456.555119 
L 203.276574 458.535618 
" style="fill:none;stroke:#000000;stroke-linecap:square;stroke-width:0.8;"/>
    </g>
    <g id="text_16">
     <!-- 0 -->
     <g transform="translate(184.694242 464.068272)scale(0.1 -0.1)">
      <use xlink:href="#DejaVuSans-30"/>
     </g>
    </g>
   </g>
   <g id="xtick_17">
    <g id="line2d_20">
     <path d="M 208.283342 427.845373 
L 202.252129 429.787533 
" style="fill:none;stroke:#000000;stroke-linecap:square;stroke-width:0.8;"/>
    </g>
    <g id="text_17">
     <!-- 1 -->
     <g transform="translate(183.59984 435.360177)scale(0.1 -0.1)">
      <use xlink:href="#DejaVuSans-31"/>
     </g>
    </g>
   </g>
   <g id="xtick_18">
    <g id="line2d_21">
     <path d="M 207.279234 398.866947 
L 201.21808 400.769963 
" style="fill:none;stroke:#000000;stroke-linecap:square;stroke-width:0.8;"/>
    </g>
    <g id="text_18">
     <!-- 2 -->
     <g transform="translate(182.495197 406.383438)scale(0.1 -0.1)">
      <use xlink:href="#DejaVuSans-32"/>
     </g>
    </g>
   </g>
   <g id="xtick_19">
    <g id="line2d_22">
     <path d="M 206.265685 369.616053 
L 200.174293 371.4791 
" style="fill:none;stroke:#000000;stroke-linecap:square;stroke-width:0.8;"/>
    </g>
    <g id="text_19">
     <!-- 3 -->
     <g transform="translate(181.380169 377.134266)scale(0.1 -0.1)">
      <use xlink:href="#DejaVuSans-33"/>
     </g>
    </g>
   </g>
   <g id="xtick_20">
    <g id="line2d_23">
     <path d="M 205.24256 340.08883 
L 199.120629 341.911064 
" style="fill:none;stroke:#000000;stroke-linecap:square;stroke-width:0.8;"/>
    </g>
    <g id="text_20">
     <!-- 4 -->
     <g transform="translate(180.254607 347.608801)scale(0.1 -0.1)">
      <use xlink:href="#DejaVuSans-34"/>
     </g>
    </g>
   </g>
   <g id="xtick_21">
    <g id="line2d_24">
     <path d="M 204.209725 310.281344 
L 198.056946 312.061905 
" style="fill:none;stroke:#000000;stroke-linecap:square;stroke-width:0.8;"/>
    </g>
    <g id="text_21">
     <!-- 5 -->
     <g transform="translate(179.118363 317.80311)scale(0.1 -0.1)">
      <use xlink:href="#DejaVuSans-35"/>
     </g>
    </g>
   </g>
   <g id="xtick_22">
    <g id="line2d_25">
     <path d="M 203.16704 280.189584 
L 196.983103 281.927592 
" style="fill:none;stroke:#000000;stroke-linecap:square;stroke-width:0.8;"/>
    </g>
    <g id="text_22">
     <!-- 6 -->
     <g transform="translate(177.971284 287.713183)scale(0.1 -0.1)">
      <defs>
       <path d="M 2113 2584 
Q 1688 2584 1439 2293 
Q 1191 2003 1191 1497 
Q 1191 994 1439 701 
Q 1688 409 2113 409 
Q 2538 409 2786 701 
Q 3034 994 3034 1497 
Q 3034 2003 2786 2293 
Q 2538 2584 2113 2584 
z
M 3366 4563 
L 3366 3988 
Q 3128 4100 2886 4159 
Q 2644 4219 2406 4219 
Q 1781 4219 1451 3797 
Q 1122 3375 1075 2522 
Q 1259 2794 1537 2939 
Q 1816 3084 2150 3084 
Q 2853 3084 3261 2657 
Q 3669 2231 3669 1497 
Q 3669 778 3244 343 
Q 2819 -91 2113 -91 
Q 1303 -91 875 529 
Q 447 1150 447 2328 
Q 447 3434 972 4092 
Q 1497 4750 2381 4750 
Q 2619 4750 2861 4703 
Q 3103 4656 3366 4563 
z
" id="DejaVuSans-36" transform="scale(0.015625)"/>
      </defs>
      <use xlink:href="#DejaVuSans-36"/>
     </g>
    </g>
   </g>
   <g id="xtick_23">
    <g id="line2d_26">
     <path d="M 202.114363 249.809466 
L 195.898951 251.50402 
" style="fill:none;stroke:#000000;stroke-linecap:square;stroke-width:0.8;"/>
    </g>
    <g id="text_23">
     <!-- 7 -->
     <g transform="translate(176.813213 257.334937)scale(0.1 -0.1)">
      <defs>
       <path d="M 525 4666 
L 3525 4666 
L 3525 4397 
L 1831 0 
L 1172 0 
L 2766 4134 
L 525 4134 
L 525 4666 
z
" id="DejaVuSans-37" transform="scale(0.015625)"/>
      </defs>
      <use xlink:href="#DejaVuSans-37"/>
     </g>
    </g>
   </g>
  </g>
  <g id="axes_1">
   <g id="Poly3DCollection_1">
    <path clip-path="url(#p2332474d57)" d="M 422.841663 422.569752 
L 390.065522 406.510866 
L 438.969734 390.236633 
L 471.948671 405.841384 
z
" style="fill:#113f60;"/>
    <path clip-path="url(#p2332474d57)" d="M 471.948671 405.841384 
L 438.969734 390.236633 
L 439.478884 193.174122 
L 473.522922 206.481577 
z
" style="fill:#0d324b;"/>
    <path clip-path="url(#p2332474d57)" d="M 390.065522 406.510866 
L 389.012557 207.052758 
L 439.478884 193.174122 
L 438.969734 390.236633 
z
" style="fill:#0d324b;"/>
    <path clip-path="url(#p2332474d57)" d="M 456.545643 439.083239 
L 422.841663 422.569752 
L 471.948671 405.841384 
L 505.847615 421.881458 
z
" style="fill:#113f60;"/>
    <path clip-path="url(#p2332474d57)" d="M 372.284851 439.791998 
L 339.737655 423.258859 
L 390.065522 406.510866 
L 422.841663 422.569752 
z
" style="fill:#113f60;"/>
    <path clip-path="url(#p2332474d57)" d="M 505.847615 421.881458 
L 471.948671 405.841384 
L 473.291874 235.741027 
L 508.151166 249.787903 
z
" style="fill:#0d324b;"/>
    <path clip-path="url(#p2332474d57)" d="M 422.841663 422.569752 
L 422.840827 250.390907 
L 473.291874 235.741027 
L 471.948671 405.841384 
z
" style="fill:#0d324b;"/>
    <path clip-path="url(#p2332474d57)" d="M 422.841663 422.569752 
L 390.065522 406.510866 
L 389.1671 236.327102 
L 422.840827 250.390907 
z
" style="fill:#0d324b;"/>
    <path clip-path="url(#p2332474d57)" d="M 339.737655 423.258859 
L 337.42691 250.994644 
L 389.1671 236.327102 
L 390.065522 406.510866 
z
" style="fill:#0d324b;"/>
    <path clip-path="url(#p2332474d57)" d="M 422.841663 422.569752 
L 471.948671 405.841384 
L 473.522922 206.481577 
L 422.840684 220.760104 
z
" style="fill:#1b699f;"/>
    <path clip-path="url(#p2332474d57)" d="M 422.841663 422.569752 
L 422.840684 220.760104 
L 389.012557 207.052758 
L 390.065522 406.510866 
z
" style="fill:#1b699f;"/>
    <path clip-path="url(#p2332474d57)" d="M 491.217427 456.070908 
L 456.545643 439.083239 
L 505.847615 421.881458 
L 540.705609 438.375329 
z
" style="fill:#113f60;"/>
    <path clip-path="url(#p2332474d57)" d="M 405.767201 456.800171 
L 372.284851 439.791998 
L 422.841663 422.569752 
L 456.545643 439.083239 
z
" style="fill:#113f60;"/>
    <path clip-path="url(#p2332474d57)" d="M 320.213068 457.53032 
L 287.92305 440.501606 
L 339.737655 423.258859 
L 372.284851 439.791998 
z
" style="fill:#113f60;"/>
    <path clip-path="url(#p2332474d57)" d="M 422.840684 220.760104 
L 473.522922 206.481577 
L 439.478884 193.174122 
L 389.012557 207.052758 
z
" style="fill:#185b8a;"/>
    <path clip-path="url(#p2332474d57)" d="M 540.705609 438.375329 
L 505.847615 421.881458 
L 507.7584 279.130663 
L 543.458392 293.94337 
z
" style="fill:#0d324b;"/>
    <path clip-path="url(#p2332474d57)" d="M 456.545643 439.083239 
L 457.3328 294.579341 
L 507.7584 279.130663 
L 505.847615 421.881458 
z
" style="fill:#0d324b;"/>
    <path clip-path="url(#p2332474d57)" d="M 456.545643 439.083239 
L 422.841663 422.569752 
L 422.84097 279.748609 
L 457.3328 294.579341 
z
" style="fill:#0d324b;"/>
    <path clip-path="url(#p2332474d57)" d="M 372.284851 439.791998 
L 371.101613 295.216092 
L 422.84097 279.748609 
L 422.841663 422.569752 
z
" style="fill:#0d324b;"/>
    <path clip-path="url(#p2332474d57)" d="M 372.284851 439.791998 
L 339.737655 423.258859 
L 337.820913 280.367301 
L 371.101613 295.216092 
z
" style="fill:#0d324b;"/>
    <path clip-path="url(#p2332474d57)" d="M 287.92305 440.501606 
L 284.764637 295.853625 
L 337.820913 280.367301 
L 339.737655 423.258859 
z
" style="fill:#0d324b;"/>
    <path clip-path="url(#p2332474d57)" d="M 456.545643 439.083239 
L 505.847615 421.881458 
L 508.151166 249.787903 
L 457.494668 264.864057 
z
" style="fill:#1b699f;"/>
    <path clip-path="url(#p2332474d57)" d="M 456.545643 439.083239 
L 457.494668 264.864057 
L 422.840827 250.390907 
L 422.841663 422.569752 
z
" style="fill:#1b699f;"/>
    <path clip-path="url(#p2332474d57)" d="M 372.284851 439.791998 
L 422.841663 422.569752 
L 422.840827 250.390907 
L 370.858292 265.485498 
z
" style="fill:#1b699f;"/>
    <path clip-path="url(#p2332474d57)" d="M 372.284851 439.791998 
L 370.858292 265.485498 
L 337.42691 250.994644 
L 339.737655 423.258859 
z
" style="fill:#1b699f;"/>
    <path clip-path="url(#p2332474d57)" d="M 457.494668 264.864057 
L 508.151166 249.787903 
L 473.291874 235.741027 
L 422.840827 250.390907 
z
" style="fill:#185b8a;"/>
    <path clip-path="url(#p2332474d57)" d="M 370.858292 265.485498 
L 422.840827 250.390907 
L 389.1671 236.327102 
L 337.42691 250.994644 
z
" style="fill:#185b8a;"/>
    <path clip-path="url(#p2332474d57)" d="M 526.899307 473.55348 
L 491.217427 456.070908 
L 540.705609 438.375329 
L 576.563937 455.342531 
z
" style="fill:#113f60;"/>
    <path clip-path="url(#p2332474d57)" d="M 440.225596 474.30415 
L 405.767201 456.800171 
L 456.545643 439.083239 
L 491.217427 456.070908 
z
" style="fill:#113f60;"/>
    <path clip-path="url(#p2332474d57)" d="M 353.444953 475.055746 
L 320.213068 457.53032 
L 372.284851 439.791998 
L 405.767201 456.800171 
z
" style="fill:#113f60;"/>
    <path clip-path="url(#p2332474d57)" d="M 576.563937 455.342531 
L 540.705609 438.375329 
L 542.897594 323.367116 
L 579.464768 338.973197 
z
" style="fill:#0d324b;"/>
    <path clip-path="url(#p2332474d57)" d="M 266.557182 475.808269 
L 234.554838 458.261358 
L 287.92305 440.501606 
L 320.213068 457.53032 
z
" style="fill:#113f60;"/>
    <path clip-path="url(#p2332474d57)" d="M 491.217427 456.070908 
L 492.508202 339.64333 
L 542.897594 323.367116 
L 540.705609 438.375329 
z
" style="fill:#0d324b;"/>
    <path clip-path="url(#p2332474d57)" d="M 491.217427 456.070908 
L 456.545643 439.083239 
L 457.172439 324.018071 
L 492.508202 339.64333 
z
" style="fill:#0d324b;"/>
    <path clip-path="url(#p2332474d57)" d="M 405.767201 456.800171 
L 405.443965 340.314293 
L 457.172439 324.018071 
L 456.545643 439.083239 
z
" style="fill:#0d324b;"/>
    <path clip-path="url(#p2332474d57)" d="M 405.767201 456.800171 
L 372.284851 439.791998 
L 371.342668 324.66982 
L 405.443965 340.314293 
z
" style="fill:#0d324b;"/>
    <path clip-path="url(#p2332474d57)" d="M 320.213068 457.53032 
L 318.271857 340.986087 
L 371.342668 324.66982 
L 372.284851 439.791998 
z
" style="fill:#0d324b;"/>
    <path clip-path="url(#p2332474d57)" d="M 320.213068 457.53032 
L 287.92305 440.501606 
L 285.408092 325.322365 
L 318.271857 340.986087 
z
" style="fill:#0d324b;"/>
    <path clip-path="url(#p2332474d57)" d="M 234.554838 458.261358 
L 230.991678 341.658714 
L 285.408092 325.322365 
L 287.92305 440.501606 
z
" style="fill:#0d324b;"/>
    <path clip-path="url(#p2332474d57)" d="M 491.217427 456.070908 
L 540.705609 438.375329 
L 543.458392 293.94337 
L 492.838549 309.846037 
z
" style="fill:#1b699f;"/>
    <path clip-path="url(#p2332474d57)" d="M 491.217427 456.070908 
L 492.838549 309.846037 
L 457.3328 294.579341 
L 456.545643 439.083239 
z
" style="fill:#1b699f;"/>
    <path clip-path="url(#p2332474d57)" d="M 405.767201 456.800171 
L 456.545643 439.083239 
L 457.3328 294.579341 
L 405.361238 310.501649 
z
" style="fill:#1b699f;"/>
    <path clip-path="url(#p2332474d57)" d="M 405.767201 456.800171 
L 405.361238 310.501649 
L 371.101613 295.216092 
L 372.284851 439.791998 
z
" style="fill:#1b699f;"/>
    <path clip-path="url(#p2332474d57)" d="M 320.213068 457.53032 
L 372.284851 439.791998 
L 371.101613 295.216092 
L 317.775029 311.158078 
z
" style="fill:#1b699f;"/>
    <path clip-path="url(#p2332474d57)" d="M 320.213068 457.53032 
L 317.775029 311.158078 
L 284.764637 295.853625 
L 287.92305 440.501606 
z
" style="fill:#1b699f;"/>
    <path clip-path="url(#p2332474d57)" d="M 492.838549 309.846037 
L 543.458392 293.94337 
L 507.7584 279.130663 
L 457.3328 294.579341 
z
" style="fill:#185b8a;"/>
    <path clip-path="url(#p2332474d57)" d="M 405.361238 310.501649 
L 457.3328 294.579341 
L 422.84097 279.748609 
L 371.101613 295.216092 
z
" style="fill:#185b8a;"/>
    <path clip-path="url(#p2332474d57)" d="M 317.775029 311.158078 
L 371.101613 295.216092 
L 337.820913 280.367301 
L 284.764637 295.853625 
z
" style="fill:#185b8a;"/>
    <path clip-path="url(#p2332474d57)" d="M 613.466285 472.803735 
L 576.563937 455.342531 
L 578.729342 368.475419 
L 616.191267 384.903617 
z
" style="fill:#0d324b;"/>
    <path clip-path="url(#p2332474d57)" d="M 526.899307 473.55348 
L 528.387547 385.609158 
L 578.729342 368.475419 
L 576.563937 455.342531 
z
" style="fill:#0d324b;"/>
    <path clip-path="url(#p2332474d57)" d="M 563.636076 491.552902 
L 526.899307 473.55348 
L 576.563937 455.342531 
L 613.466285 472.803735 
z
" style="fill:#113f60;"/>
    <path clip-path="url(#p2332474d57)" d="M 526.899307 473.55348 
L 491.217427 456.070908 
L 492.180959 369.160571 
L 528.387547 385.609158 
z
" style="fill:#0d324b;"/>
    <path clip-path="url(#p2332474d57)" d="M 440.225596 474.30415 
L 440.474019 386.315582 
L 492.180959 369.160571 
L 491.217427 456.070908 
z
" style="fill:#0d324b;"/>
    <path clip-path="url(#p2332474d57)" d="M 475.703347 492.325936 
L 440.225596 474.30415 
L 491.217427 456.070908 
L 526.899307 473.55348 
z
" style="fill:#113f60;"/>
    <path clip-path="url(#p2332474d57)" d="M 440.225596 474.30415 
L 405.767201 456.800171 
L 405.525914 369.846568 
L 440.474019 386.315582 
z
" style="fill:#0d324b;"/>
    <path clip-path="url(#p2332474d57)" d="M 353.444953 475.055746 
L 352.450476 387.022889 
L 405.525914 369.846568 
L 405.767201 456.800171 
z
" style="fill:#0d324b;"/>
    <path clip-path="url(#p2332474d57)" d="M 387.660528 493.099937 
L 353.444953 475.055746 
L 405.767201 456.800171 
L 440.225596 474.30415 
z
" style="fill:#113f60;"/>
    <path clip-path="url(#p2332474d57)" d="M 353.444953 475.055746 
L 320.213068 457.53032 
L 318.76401 370.53341 
L 352.450476 387.022889 
z
" style="fill:#0d324b;"/>
    <path clip-path="url(#p2332474d57)" d="M 266.557182 475.808269 
L 264.316713 387.731082 
L 318.76401 370.53341 
L 320.213068 457.53032 
z
" style="fill:#0d324b;"/>
    <path clip-path="url(#p2332474d57)" d="M 299.507411 493.874908 
L 266.557182 475.808269 
L 320.213068 457.53032 
L 353.444953 475.055746 
z
" style="fill:#113f60;"/>
    <path clip-path="url(#p2332474d57)" d="M 526.899307 473.55348 
L 576.563937 455.342531 
L 579.464768 338.973197 
L 528.893135 355.732527 
z
" style="fill:#1b699f;"/>
    <path clip-path="url(#p2332474d57)" d="M 526.899307 473.55348 
L 528.893135 355.732527 
L 492.508202 339.64333 
L 491.217427 456.070908 
z
" style="fill:#1b699f;"/>
    <path clip-path="url(#p2332474d57)" d="M 440.225596 474.30415 
L 491.217427 456.070908 
L 492.508202 339.64333 
L 440.558415 356.423566 
z
" style="fill:#1b699f;"/>
    <path clip-path="url(#p2332474d57)" d="M 440.225596 474.30415 
L 440.558415 356.423566 
L 405.443965 340.314293 
L 405.767201 456.800171 
z
" style="fill:#1b699f;"/>
    <path clip-path="url(#p2332474d57)" d="M 353.444953 475.055746 
L 405.767201 456.800171 
L 405.443965 340.314293 
L 352.112623 357.115474 
z
" style="fill:#1b699f;"/>
    <path clip-path="url(#p2332474d57)" d="M 353.444953 475.055746 
L 352.112623 357.115474 
L 318.271857 340.986087 
L 320.213068 457.53032 
z
" style="fill:#1b699f;"/>
    <path clip-path="url(#p2332474d57)" d="M 266.557182 475.808269 
L 320.213068 457.53032 
L 318.271857 340.986087 
L 263.555549 357.808252 
z
" style="fill:#1b699f;"/>
    <path clip-path="url(#p2332474d57)" d="M 528.893135 355.732527 
L 579.464768 338.973197 
L 542.897594 323.367116 
L 492.508202 339.64333 
z
" style="fill:#185b8a;"/>
    <path clip-path="url(#p2332474d57)" d="M 266.557182 475.808269 
L 263.555549 357.808252 
L 230.991678 341.658714 
L 234.554838 458.261358 
z
" style="fill:#1b699f;"/>
    <path clip-path="url(#p2332474d57)" d="M 440.558415 356.423566 
L 492.508202 339.64333 
L 457.172439 324.018071 
L 405.443965 340.314293 
z
" style="fill:#185b8a;"/>
    <path clip-path="url(#p2332474d57)" d="M 352.112623 357.115474 
L 405.443965 340.314293 
L 371.342668 324.66982 
L 318.271857 340.986087 
z
" style="fill:#185b8a;"/>
    <path clip-path="url(#p2332474d57)" d="M 263.555549 357.808252 
L 318.271857 340.986087 
L 285.408092 325.322365 
L 230.991678 341.658714 
z
" style="fill:#185b8a;"/>
    <path clip-path="url(#p2332474d57)" d="M 563.636076 491.552902 
L 526.899307 473.55348 
L 527.886758 415.202194 
L 564.992182 432.50417 
z
" style="fill:#0d324b;"/>
    <path clip-path="url(#p2332474d57)" d="M 475.703347 492.325936 
L 476.212642 433.247358 
L 527.886758 415.202194 
L 526.899307 473.55348 
z
" style="fill:#0d324b;"/>
    <path clip-path="url(#p2332474d57)" d="M 475.703347 492.325936 
L 440.225596 474.30415 
L 440.390425 415.92368 
L 476.212642 433.247358 
z
" style="fill:#0d324b;"/>
    <path clip-path="url(#p2332474d57)" d="M 387.660528 493.099937 
L 387.320879 433.991486 
L 440.390425 415.92368 
L 440.225596 474.30415 
z
" style="fill:#0d324b;"/>
    <path clip-path="url(#p2332474d57)" d="M 387.660528 493.099937 
L 353.444953 475.055746 
L 352.785119 416.646064 
L 387.320879 433.991486 
z
" style="fill:#0d324b;"/>
    <path clip-path="url(#p2332474d57)" d="M 299.507411 493.874908 
L 298.316681 434.736555 
L 352.785119 416.646064 
L 353.444953 475.055746 
z
" style="fill:#0d324b;"/>
    <path clip-path="url(#p2332474d57)" d="M 565.68008 402.551088 
L 616.191267 384.903617 
L 578.729342 368.475419 
L 528.387547 385.609158 
z
" style="fill:#185b8a;"/>
    <path clip-path="url(#p2332474d57)" d="M 563.636076 491.552902 
L 613.466285 472.803735 
L 616.191267 384.903617 
L 565.68008 402.551088 
z
" style="fill:#1b699f;"/>
    <path clip-path="url(#p2332474d57)" d="M 563.636076 491.552902 
L 565.68008 402.551088 
L 528.387547 385.609158 
L 526.899307 473.55348 
z
" style="fill:#1b699f;"/>
    <path clip-path="url(#p2332474d57)" d="M 476.470989 403.278865 
L 528.387547 385.609158 
L 492.180959 369.160571 
L 440.474019 386.315582 
z
" style="fill:#185b8a;"/>
    <path clip-path="url(#p2332474d57)" d="M 475.703347 492.325936 
L 526.899307 473.55348 
L 528.387547 385.609158 
L 476.470989 403.278865 
z
" style="fill:#1b699f;"/>
    <path clip-path="url(#p2332474d57)" d="M 512.246366 510.88885 
L 475.703347 492.325936 
L 526.899307 473.55348 
L 563.636076 491.552902 
z
" style="fill:#113f60;"/>
    <path clip-path="url(#p2332474d57)" d="M 475.703347 492.325936 
L 476.470989 403.278865 
L 440.474019 386.315582 
L 440.225596 474.30415 
z
" style="fill:#1b699f;"/>
    <path clip-path="url(#p2332474d57)" d="M 387.148585 404.007566 
L 440.474019 386.315582 
L 405.525914 369.846568 
L 352.450476 387.022889 
z
" style="fill:#185b8a;"/>
    <path clip-path="url(#p2332474d57)" d="M 387.660528 493.099937 
L 440.225596 474.30415 
L 440.474019 386.315582 
L 387.148585 404.007566 
z
" style="fill:#1b699f;"/>
    <path clip-path="url(#p2332474d57)" d="M 422.904124 511.686273 
L 387.660528 493.099937 
L 440.225596 474.30415 
L 475.703347 492.325936 
z
" style="fill:#113f60;"/>
    <path clip-path="url(#p2332474d57)" d="M 387.660528 493.099937 
L 387.148585 404.007566 
L 352.450476 387.022889 
L 353.444953 475.055746 
z
" style="fill:#1b699f;"/>
    <path clip-path="url(#p2332474d57)" d="M 297.712654 404.737194 
L 352.450476 387.022889 
L 318.76401 370.53341 
L 264.316713 387.731082 
z
" style="fill:#185b8a;"/>
    <path clip-path="url(#p2332474d57)" d="M 299.507411 493.874908 
L 353.444953 475.055746 
L 352.450476 387.022889 
L 297.712654 404.737194 
z
" style="fill:#1b699f;"/>
    <path clip-path="url(#p2332474d57)" d="M 333.448274 512.484711 
L 299.507411 493.874908 
L 353.444953 475.055746 
L 387.660528 493.099937 
z
" style="fill:#113f60;"/>
    <path clip-path="url(#p2332474d57)" d="M 299.507411 493.874908 
L 297.712654 404.737194 
L 264.316713 387.731082 
L 266.557182 475.808269 
z
" style="fill:#1b699f;"/>
    <path clip-path="url(#p2332474d57)" d="M 513.120994 451.096294 
L 564.992182 432.50417 
L 527.886758 415.202194 
L 476.212642 433.247358 
z
" style="fill:#185b8a;"/>
    <path clip-path="url(#p2332474d57)" d="M 512.246366 510.88885 
L 475.703347 492.325936 
L 475.956773 462.928343 
L 512.681551 481.138144 
z
" style="fill:#0d324b;"/>
    <path clip-path="url(#p2332474d57)" d="M 422.904441 451.863163 
L 476.212642 433.247358 
L 440.390425 415.92368 
L 387.320879 433.991486 
z
" style="fill:#185b8a;"/>
    <path clip-path="url(#p2332474d57)" d="M 422.904124 511.686273 
L 422.904281 481.920457 
L 475.956773 462.928343 
L 475.703347 492.325936 
z
" style="fill:#0d324b;"/>
    <path clip-path="url(#p2332474d57)" d="M 422.904124 511.686273 
L 387.660528 493.099937 
L 387.491518 463.687568 
L 422.904281 481.920457 
z
" style="fill:#0d324b;"/>
    <path clip-path="url(#p2332474d57)" d="M 332.572044 452.631015 
L 387.320879 433.991486 
L 352.785119 416.646064 
L 298.316681 434.736555 
z
" style="fill:#185b8a;"/>
    <path clip-path="url(#p2332474d57)" d="M 333.448274 512.484711 
L 333.012295 482.70377 
L 387.491518 463.687568 
L 387.660528 493.099937 
z
" style="fill:#0d324b;"/>
    <path clip-path="url(#p2332474d57)" d="M 512.246366 510.88885 
L 563.636076 491.552902 
L 564.992182 432.50417 
L 513.120994 451.096294 
z
" style="fill:#1b699f;"/>
    <path clip-path="url(#p2332474d57)" d="M 512.246366 510.88885 
L 513.120994 451.096294 
L 476.212642 433.247358 
L 475.703347 492.325936 
z
" style="fill:#1b699f;"/>
    <path clip-path="url(#p2332474d57)" d="M 422.904124 511.686273 
L 475.703347 492.325936 
L 476.212642 433.247358 
L 422.904441 451.863163 
z
" style="fill:#1b699f;"/>
    <path clip-path="url(#p2332474d57)" d="M 422.904124 511.686273 
L 422.904441 451.863163 
L 387.320879 433.991486 
L 387.660528 493.099937 
z
" style="fill:#1b699f;"/>
    <path clip-path="url(#p2332474d57)" d="M 333.448274 512.484711 
L 387.660528 493.099937 
L 387.320879 433.991486 
L 332.572044 452.631015 
z
" style="fill:#1b699f;"/>
    <path clip-path="url(#p2332474d57)" d="M 333.448274 512.484711 
L 332.572044 452.631015 
L 298.316681 434.736555 
L 299.507411 493.874908 
z
" style="fill:#1b699f;"/>
    <path clip-path="url(#p2332474d57)" d="M 459.222778 530.839561 
L 422.904124 511.686273 
L 475.703347 492.325936 
L 512.246366 510.88885 
z
" style="fill:#113f60;"/>
    <path clip-path="url(#p2332474d57)" d="M 368.425126 531.662548 
L 333.448274 512.484711 
L 387.660528 493.099937 
L 422.904124 511.686273 
z
" style="fill:#113f60;"/>
    <path clip-path="url(#p2332474d57)" d="M 459.402607 500.712267 
L 512.681551 481.138144 
L 475.956773 462.928343 
L 422.904281 481.920457 
z
" style="fill:#185b8a;"/>
    <path clip-path="url(#p2332474d57)" d="M 368.155603 501.519784 
L 422.904281 481.920457 
L 387.491518 463.687568 
L 333.012295 482.70377 
z
" style="fill:#185b8a;"/>
    <path clip-path="url(#p2332474d57)" d="M 459.222778 530.839561 
L 422.904124 511.686273 
L 422.904124 511.686273 
L 459.222778 530.839561 
z
" style="fill:#144d75;"/>
    <path clip-path="url(#p2332474d57)" d="M 368.425126 531.662548 
L 368.425126 531.662548 
L 422.904124 511.686273 
L 422.904124 511.686273 
z
" style="fill:#144d75;"/>
    <path clip-path="url(#p2332474d57)" d="M 459.222778 530.839561 
L 512.246366 510.88885 
L 512.681551 481.138144 
L 459.402607 500.712267 
z
" style="fill:#1b699f;"/>
    <path clip-path="url(#p2332474d57)" d="M 459.222778 530.839561 
L 459.402607 500.712267 
L 422.904281 481.920457 
L 422.904124 511.686273 
z
" style="fill:#1b699f;"/>
    <path clip-path="url(#p2332474d57)" d="M 368.425126 531.662548 
L 422.904124 511.686273 
L 422.904281 481.920457 
L 368.155603 501.519784 
z
" style="fill:#1b699f;"/>
    <path clip-path="url(#p2332474d57)" d="M 368.425126 531.662548 
L 368.155603 501.519784 
L 333.012295 482.70377 
L 333.448274 512.484711 
z
" style="fill:#1b699f;"/>
    <path clip-path="url(#p2332474d57)" d="M 404.486135 551.434829 
L 368.425126 531.662548 
L 422.904124 511.686273 
L 459.222778 530.839561 
z
" style="fill:#113f60;"/>
    <path clip-path="url(#p2332474d57)" d="M 404.486135 551.434829 
L 459.222778 530.839561 
L 422.904124 511.686273 
L 368.425126 531.662548 
z
" style="fill:#185b8a;"/>
    <path clip-path="url(#p2332474d57)" d="M 404.486135 551.434829 
L 459.222778 530.839561 
L 459.222778 530.839561 
L 404.486135 551.434829 
z
" style="fill:#144d75;"/>
    <path clip-path="url(#p2332474d57)" d="M 404.486135 551.434829 
L 404.486135 551.434829 
L 368.425126 531.662548 
L 368.425126 531.662548 
z
" style="fill:#144d75;"/>
   </g>
   <g id="text_24">
    <!-- Shaded -->
    <g transform="translate(393.692472 120.290291)scale(0.12 -0.12)">
     <defs>
      <path d="M 3425 4513 
L 3425 3897 
Q 3066 4069 2747 4153 
Q 2428 4238 2131 4238 
Q 1616 4238 1336 4038 
Q 1056 3838 1056 3469 
Q 1056 3159 1242 3001 
Q 1428 2844 1947 2747 
L 2328 2669 
Q 3034 2534 3370 2195 
Q 3706 1856 3706 1288 
Q 3706 609 3251 259 
Q 2797 -91 1919 -91 
Q 1588 -91 1214 -16 
Q 841 59 441 206 
L 441 856 
Q 825 641 1194 531 
Q 1563 422 1919 422 
Q 2459 422 2753 634 
Q 3047 847 3047 1241 
Q 3047 1584 2836 1778 
Q 2625 1972 2144 2069 
L 1759 2144 
Q 1053 2284 737 2584 
Q 422 2884 422 3419 
Q 422 4038 858 4394 
Q 1294 4750 2059 4750 
Q 2388 4750 2728 4690 
Q 3069 4631 3425 4513 
z
" id="DejaVuSans-53" transform="scale(0.015625)"/>
      <path d="M 3513 2113 
L 3513 0 
L 2938 0 
L 2938 2094 
Q 2938 2591 2744 2837 
Q 2550 3084 2163 3084 
Q 1697 3084 1428 2787 
Q 1159 2491 1159 1978 
L 1159 0 
L 581 0 
L 581 4863 
L 1159 4863 
L 1159 2956 
Q 1366 3272 1645 3428 
Q 1925 3584 2291 3584 
Q 2894 3584 3203 3211 
Q 3513 2838 3513 2113 
z
" id="DejaVuSans-68" transform="scale(0.015625)"/>
      <path d="M 2194 1759 
Q 1497 1759 1228 1600 
Q 959 1441 959 1056 
Q 959 750 1161 570 
Q 1363 391 1709 391 
Q 2188 391 2477 730 
Q 2766 1069 2766 1631 
L 2766 1759 
L 2194 1759 
z
M 3341 1997 
L 3341 0 
L 2766 0 
L 2766 531 
Q 2569 213 2275 61 
Q 1981 -91 1556 -91 
Q 1019 -91 701 211 
Q 384 513 384 1019 
Q 384 1609 779 1909 
Q 1175 2209 1959 2209 
L 2766 2209 
L 2766 2266 
Q 2766 2663 2505 2880 
Q 2244 3097 1772 3097 
Q 1472 3097 1187 3025 
Q 903 2953 641 2809 
L 641 3341 
Q 956 3463 1253 3523 
Q 1550 3584 1831 3584 
Q 2591 3584 2966 3190 
Q 3341 2797 3341 1997 
z
" id="DejaVuSans-61" transform="scale(0.015625)"/>
      <path d="M 2906 2969 
L 2906 4863 
L 3481 4863 
L 3481 0 
L 2906 0 
L 2906 525 
Q 2725 213 2448 61 
Q 2172 -91 1784 -91 
Q 1150 -91 751 415 
Q 353 922 353 1747 
Q 353 2572 751 3078 
Q 1150 3584 1784 3584 
Q 2172 3584 2448 3432 
Q 2725 3281 2906 2969 
z
M 947 1747 
Q 947 1113 1208 752 
Q 1469 391 1925 391 
Q 2381 391 2643 752 
Q 2906 1113 2906 1747 
Q 2906 2381 2643 2742 
Q 2381 3103 1925 3103 
Q 1469 3103 1208 2742 
Q 947 2381 947 1747 
z
" id="DejaVuSans-64" transform="scale(0.015625)"/>
      <path d="M 3597 1894 
L 3597 1613 
L 953 1613 
Q 991 1019 1311 708 
Q 1631 397 2203 397 
Q 2534 397 2845 478 
Q 3156 559 3463 722 
L 3463 178 
Q 3153 47 2828 -22 
Q 2503 -91 2169 -91 
Q 1331 -91 842 396 
Q 353 884 353 1716 
Q 353 2575 817 3079 
Q 1281 3584 2069 3584 
Q 2775 3584 3186 3129 
Q 3597 2675 3597 1894 
z
M 3022 2063 
Q 3016 2534 2758 2815 
Q 2500 3097 2075 3097 
Q 1594 3097 1305 2825 
Q 1016 2553 972 2059 
L 3022 2063 
z
" id="DejaVuSans-65" transform="scale(0.015625)"/>
     </defs>
     <use xlink:href="#DejaVuSans-53"/>
     <use x="63.476562" xlink:href="#DejaVuSans-68"/>
     <use x="126.855469" xlink:href="#DejaVuSans-61"/>
     <use x="188.134766" xlink:href="#DejaVuSans-64"/>
     <use x="251.611328" xlink:href="#DejaVuSans-65"/>
     <use x="313.134766" xlink:href="#DejaVuSans-64"/>
    </g>
   </g>
  </g>
  <g id="patch_6">
   <path d="M 757.178182 613.272109 
L 1244.16 613.272109 
L 1244.16 126.290291 
L 757.178182 126.290291 
z
" style="fill:#ffffff;"/>
  </g>
  <g id="pane3d_4">
   <g id="patch_7">
    <path d="M 825.807282 521.464554 
L 880.861938 419.349454 
L 877.679972 207.01337 
L 820.689409 286.45047 
" style="fill:#f2f2f2;opacity:0.5;stroke:#f2f2f2;stroke-linejoin:miter;"/>
   </g>
  </g>
  <g id="pane3d_5">
   <g id="patch_8">
    <path d="M 880.861938 419.349454 
L 1171.830136 430.907691 
L 1176.02994 215.981214 
L 877.679972 207.01337 
" style="fill:#e6e6e6;opacity:0.5;stroke:#e6e6e6;stroke-linejoin:miter;"/>
   </g>
  </g>
  <g id="pane3d_6">
   <g id="patch_9">
    <path d="M 825.807282 521.464554 
L 1150.526546 535.909731 
L 1171.830136 430.907691 
L 880.861938 419.349454 
" style="fill:#ececec;opacity:0.5;stroke:#ececec;stroke-linejoin:miter;"/>
   </g>
  </g>
  <g id="axis3d_4">
   <g id="line2d_27">
    <path d="M 825.807282 521.464554 
L 1150.526546 535.909731 
" style="fill:none;stroke:#000000;stroke-linecap:square;stroke-width:0.8;"/>
   </g>
   <g id="Line3DCollection_4">
    <path d="M 846.188322 522.371207 
L 899.151178 420.075964 
L 896.427341 207.576881 
" style="fill:none;stroke:#b0b0b0;stroke-width:0.8;"/>
    <path d="M 881.215628 523.929401 
L 930.57514 421.324229 
L 928.640282 208.545142 
" style="fill:none;stroke:#b0b0b0;stroke-width:0.8;"/>
    <path d="M 916.355036 525.492582 
L 962.089092 422.57607 
L 960.947803 209.516246 
" style="fill:none;stroke:#b0b0b0;stroke-width:0.8;"/>
    <path d="M 951.607083 527.060774 
L 993.693422 423.8315 
L 993.350323 210.490205 
" style="fill:none;stroke:#b0b0b0;stroke-width:0.8;"/>
    <path d="M 986.972312 528.634 
L 1025.388518 425.090536 
L 1025.84826 211.467032 
" style="fill:none;stroke:#b0b0b0;stroke-width:0.8;"/>
    <path d="M 1022.451269 530.212286 
L 1057.174773 426.353193 
L 1058.442038 212.446741 
" style="fill:none;stroke:#b0b0b0;stroke-width:0.8;"/>
    <path d="M 1058.044504 531.795656 
L 1089.05258 427.619487 
L 1091.13208 213.429342 
" style="fill:none;stroke:#b0b0b0;stroke-width:0.8;"/>
    <path d="M 1093.75257 533.384134 
L 1121.022336 428.889434 
L 1123.918814 214.414851 
" style="fill:none;stroke:#b0b0b0;stroke-width:0.8;"/>
    <path d="M 1129.576023 534.977744 
L 1153.084438 430.163048 
L 1156.802669 215.403278 
" style="fill:none;stroke:#b0b0b0;stroke-width:0.8;"/>
   </g>
   <g id="xtick_24">
    <g id="line2d_28">
     <path d="M 846.661228 521.45781 
L 845.239844 524.203147 
" style="fill:none;stroke:#000000;stroke-linecap:square;stroke-width:0.8;"/>
    </g>
    <g id="text_25">
     <!-- 0.0 -->
     <g transform="translate(835.744398 545.586612)scale(0.1 -0.1)">
      <use xlink:href="#DejaVuSans-30"/>
      <use x="63.623047" xlink:href="#DejaVuSans-2e"/>
      <use x="95.410156" xlink:href="#DejaVuSans-30"/>
     </g>
    </g>
   </g>
   <g id="xtick_25">
    <g id="line2d_29">
     <path d="M 881.656434 523.013085 
L 880.33153 525.767205 
" style="fill:none;stroke:#000000;stroke-linecap:square;stroke-width:0.8;"/>
    </g>
    <g id="text_26">
     <!-- 0.5 -->
     <g transform="translate(870.911001 547.176233)scale(0.1 -0.1)">
      <use xlink:href="#DejaVuSans-30"/>
      <use x="63.623047" xlink:href="#DejaVuSans-2e"/>
      <use x="95.410156" xlink:href="#DejaVuSans-35"/>
     </g>
    </g>
   </g>
   <g id="xtick_26">
    <g id="line2d_30">
     <path d="M 916.763532 524.573332 
L 915.535734 527.336278 
" style="fill:none;stroke:#000000;stroke-linecap:square;stroke-width:0.8;"/>
    </g>
    <g id="text_27">
     <!-- 1.0 -->
     <g transform="translate(906.190611 548.770962)scale(0.1 -0.1)">
      <use xlink:href="#DejaVuSans-31"/>
      <use x="63.623047" xlink:href="#DejaVuSans-2e"/>
      <use x="95.410156" xlink:href="#DejaVuSans-30"/>
     </g>
    </g>
   </g>
   <g id="xtick_27">
    <g id="line2d_31">
     <path d="M 951.98306 526.138576 
L 950.852998 528.91039 
" style="fill:none;stroke:#000000;stroke-linecap:square;stroke-width:0.8;"/>
    </g>
    <g id="text_28">
     <!-- 1.5 -->
     <g transform="translate(941.583775 550.370824)scale(0.1 -0.1)">
      <use xlink:href="#DejaVuSans-31"/>
      <use x="63.623047" xlink:href="#DejaVuSans-2e"/>
      <use x="95.410156" xlink:href="#DejaVuSans-35"/>
     </g>
    </g>
   </g>
   <g id="xtick_28">
    <g id="line2d_32">
     <path d="M 987.31556 527.708841 
L 986.283869 530.489565 
" style="fill:none;stroke:#000000;stroke-linecap:square;stroke-width:0.8;"/>
    </g>
    <g id="text_29">
     <!-- 2.0 -->
     <g transform="translate(977.091041 551.975844)scale(0.1 -0.1)">
      <use xlink:href="#DejaVuSans-32"/>
      <use x="63.623047" xlink:href="#DejaVuSans-2e"/>
      <use x="95.410156" xlink:href="#DejaVuSans-30"/>
     </g>
    </g>
   </g>
   <g id="xtick_29">
    <g id="line2d_33">
     <path d="M 1022.761575 529.284151 
L 1021.828894 532.073829 
" style="fill:none;stroke:#000000;stroke-linecap:square;stroke-width:0.8;"/>
    </g>
    <g id="text_30">
     <!-- 2.5 -->
     <g transform="translate(1012.712962 553.586046)scale(0.1 -0.1)">
      <use xlink:href="#DejaVuSans-32"/>
      <use x="63.623047" xlink:href="#DejaVuSans-2e"/>
      <use x="95.410156" xlink:href="#DejaVuSans-35"/>
     </g>
    </g>
   </g>
   <g id="xtick_30">
    <g id="line2d_34">
     <path d="M 1058.321654 530.86453 
L 1057.488628 533.663205 
" style="fill:none;stroke:#000000;stroke-linecap:square;stroke-width:0.8;"/>
    </g>
    <g id="text_31">
     <!-- 3.0 -->
     <g transform="translate(1048.450094 555.201456)scale(0.1 -0.1)">
      <use xlink:href="#DejaVuSans-33"/>
      <use x="63.623047" xlink:href="#DejaVuSans-2e"/>
      <use x="95.410156" xlink:href="#DejaVuSans-30"/>
     </g>
    </g>
   </g>
   <g id="xtick_31">
    <g id="line2d_35">
     <path d="M 1093.996348 532.450003 
L 1093.263624 535.257718 
" style="fill:none;stroke:#000000;stroke-linecap:square;stroke-width:0.8;"/>
    </g>
    <g id="text_32">
     <!-- 3.5 -->
     <g transform="translate(1084.302998 556.8221)scale(0.1 -0.1)">
      <use xlink:href="#DejaVuSans-33"/>
      <use x="63.623047" xlink:href="#DejaVuSans-2e"/>
      <use x="95.410156" xlink:href="#DejaVuSans-35"/>
     </g>
    </g>
   </g>
   <g id="xtick_32">
    <g id="line2d_36">
     <path d="M 1129.786212 534.040594 
L 1129.154445 536.857394 
" style="fill:none;stroke:#000000;stroke-linecap:square;stroke-width:0.8;"/>
    </g>
    <g id="text_33">
     <!-- 4.0 -->
     <g transform="translate(1120.272236 558.448002)scale(0.1 -0.1)">
      <use xlink:href="#DejaVuSans-34"/>
      <use x="63.623047" xlink:href="#DejaVuSans-2e"/>
      <use x="95.410156" xlink:href="#DejaVuSans-30"/>
     </g>
    </g>
   </g>
  </g>
  <g id="axis3d_5">
   <g id="line2d_37">
    <path d="M 1171.830136 430.907691 
L 1150.526546 535.909731 
" style="fill:none;stroke:#000000;stroke-linecap:square;stroke-width:0.8;"/>
   </g>
   <g id="Line3DCollection_5">
    <path d="M 824.721727 280.829966 
L 829.691956 514.259279 
L 1152.031905 528.490056 
" style="fill:none;stroke:#b0b0b0;stroke-width:0.8;"/>
    <path d="M 835.473553 265.843382 
L 840.058028 495.032341 
L 1156.047269 508.698959 
" style="fill:none;stroke:#b0b0b0;stroke-width:0.8;"/>
    <path d="M 845.794979 251.456717 
L 850.02 476.554926 
L 1159.90389 489.69028 
" style="fill:none;stroke:#b0b0b0;stroke-width:0.8;"/>
    <path d="M 855.71134 237.634657 
L 859.60105 458.784042 
L 1163.611 471.41852 
" style="fill:none;stroke:#b0b0b0;stroke-width:0.8;"/>
    <path d="M 865.246024 224.344604 
L 868.822616 441.679927 
L 1167.177127 453.841641 
" style="fill:none;stroke:#b0b0b0;stroke-width:0.8;"/>
    <path d="M 874.42065 211.556422 
L 877.704558 425.205746 
L 1170.610164 436.920743 
" style="fill:none;stroke:#b0b0b0;stroke-width:0.8;"/>
   </g>
   <g id="xtick_33">
    <g id="line2d_38">
     <path d="M 1149.415551 528.374548 
L 1157.266459 528.721153 
" style="fill:none;stroke:#000000;stroke-linecap:square;stroke-width:0.8;"/>
    </g>
    <g id="text_34">
     <!-- 0 -->
     <g transform="translate(1163.490791 547.165991)scale(0.1 -0.1)">
      <use xlink:href="#DejaVuSans-30"/>
     </g>
    </g>
   </g>
   <g id="xtick_34">
    <g id="line2d_39">
     <path d="M 1153.483206 508.588063 
L 1161.177168 508.920829 
" style="fill:none;stroke:#000000;stroke-linecap:square;stroke-width:0.8;"/>
    </g>
    <g id="text_35">
     <!-- 1 -->
     <g transform="translate(1167.208796 527.162989)scale(0.1 -0.1)">
      <use xlink:href="#DejaVuSans-31"/>
     </g>
    </g>
   </g>
   <g id="xtick_35">
    <g id="line2d_40">
     <path d="M 1157.39007 489.583724 
L 1164.933236 489.903464 
" style="fill:none;stroke:#000000;stroke-linecap:square;stroke-width:0.8;"/>
    </g>
    <g id="text_36">
     <!-- 2 -->
     <g transform="translate(1170.779896 507.950339)scale(0.1 -0.1)">
      <use xlink:href="#DejaVuSans-32"/>
     </g>
    </g>
   </g>
   <g id="xtick_36">
    <g id="line2d_41">
     <path d="M 1161.14549 471.316055 
L 1168.543659 471.623518 
" style="fill:none;stroke:#000000;stroke-linecap:square;stroke-width:0.8;"/>
    </g>
    <g id="text_37">
     <!-- 3 -->
     <g transform="translate(1174.21263 489.482104)scale(0.1 -0.1)">
      <use xlink:href="#DejaVuSans-33"/>
     </g>
    </g>
   </g>
   <g id="xtick_37">
    <g id="line2d_42">
     <path d="M 1164.758107 453.743035 
L 1172.016746 454.038917 
" style="fill:none;stroke:#000000;stroke-linecap:square;stroke-width:0.8;"/>
    </g>
    <g id="text_38">
     <!-- 4 -->
     <g transform="translate(1177.514886 471.715842)scale(0.1 -0.1)">
      <use xlink:href="#DejaVuSans-34"/>
     </g>
    </g>
   </g>
   <g id="xtick_38">
    <g id="line2d_43">
     <path d="M 1168.235912 436.825783 
L 1175.360188 437.110724 
" style="fill:none;stroke:#000000;stroke-linecap:square;stroke-width:0.8;"/>
    </g>
    <g id="text_39">
     <!-- 5 -->
     <g transform="translate(1180.693966 454.612277)scale(0.1 -0.1)">
      <use xlink:href="#DejaVuSans-35"/>
     </g>
    </g>
   </g>
  </g>
  <g id="axis3d_6">
   <g id="line2d_44">
    <path d="M 1171.830136 430.907691 
L 1176.02994 215.981214 
" style="fill:none;stroke:#000000;stroke-linecap:square;stroke-width:0.8;"/>
   </g>
   <g id="Line3DCollection_6">
    <path d="M 1171.912083 426.714036 
L 880.799831 415.204987 
L 825.707678 516.890704 
" style="fill:none;stroke:#b0b0b0;stroke-width:0.8;"/>
    <path d="M 1172.47621 397.844659 
L 880.372305 386.675689 
L 825.021721 485.391376 
" style="fill:none;stroke:#b0b0b0;stroke-width:0.8;"/>
    <path d="M 1173.044215 368.77679 
L 879.941878 357.952823 
L 824.33056 453.653105 
" style="fill:none;stroke:#b0b0b0;stroke-width:0.8;"/>
    <path d="M 1173.616139 339.508377 
L 879.508521 329.034411 
L 823.634137 421.673162 
" style="fill:none;stroke:#b0b0b0;stroke-width:0.8;"/>
    <path d="M 1174.192022 310.037337 
L 879.072203 299.918449 
L 822.93239 389.448776 
" style="fill:none;stroke:#b0b0b0;stroke-width:0.8;"/>
    <path d="M 1174.771906 280.361557 
L 878.632894 270.602907 
L 822.225259 356.977133 
" style="fill:none;stroke:#b0b0b0;stroke-width:0.8;"/>
    <path d="M 1175.355833 250.478897 
L 878.190564 241.085726 
L 821.512682 324.255376 
" style="fill:none;stroke:#b0b0b0;stroke-width:0.8;"/>
    <path d="M 1175.943845 220.387186 
L 877.745181 211.364817 
L 820.794594 291.280605 
" style="fill:none;stroke:#b0b0b0;stroke-width:0.8;"/>
   </g>
   <g id="xtick_39">
    <g id="line2d_45">
     <path d="M 1169.552561 426.620753 
L 1176.632629 426.900661 
" style="fill:none;stroke:#000000;stroke-linecap:square;stroke-width:0.8;"/>
    </g>
    <g id="text_40">
     <!-- 0 -->
     <g transform="translate(1182.908603 430.619556)scale(0.1 -0.1)">
      <use xlink:href="#DejaVuSans-30"/>
     </g>
    </g>
   </g>
   <g id="xtick_40">
    <g id="line2d_46">
     <path d="M 1170.108545 397.754128 
L 1177.213051 398.025778 
" style="fill:none;stroke:#000000;stroke-linecap:square;stroke-width:0.8;"/>
    </g>
    <g id="text_41">
     <!-- 1 -->
     <g transform="translate(1183.518721 401.859192)scale(0.1 -0.1)">
      <use xlink:href="#DejaVuSans-31"/>
     </g>
    </g>
   </g>
   <g id="xtick_41">
    <g id="line2d_47">
     <path d="M 1170.668351 368.689052 
L 1177.797465 368.952323 
" style="fill:none;stroke:#000000;stroke-linecap:square;stroke-width:0.8;"/>
    </g>
    <g id="text_42">
     <!-- 2 -->
     <g transform="translate(1184.133017 372.901921)scale(0.1 -0.1)">
      <use xlink:href="#DejaVuSans-32"/>
     </g>
    </g>
   </g>
   <g id="xtick_42">
    <g id="line2d_48">
     <path d="M 1171.232018 339.423472 
L 1178.385912 339.678242 
" style="fill:none;stroke:#000000;stroke-linecap:square;stroke-width:0.8;"/>
    </g>
    <g id="text_43">
     <!-- 3 -->
     <g transform="translate(1184.751532 343.745717)scale(0.1 -0.1)">
      <use xlink:href="#DejaVuSans-33"/>
     </g>
    </g>
   </g>
   <g id="xtick_43">
    <g id="line2d_49">
     <path d="M 1171.799588 309.955306 
L 1178.978434 310.20145 
" style="fill:none;stroke:#000000;stroke-linecap:square;stroke-width:0.8;"/>
    </g>
    <g id="text_44">
     <!-- 4 -->
     <g transform="translate(1185.374311 314.38852)scale(0.1 -0.1)">
      <use xlink:href="#DejaVuSans-34"/>
     </g>
    </g>
   </g>
   <g id="xtick_44">
    <g id="line2d_50">
     <path d="M 1172.3711 280.282443 
L 1179.575073 280.519835 
" style="fill:none;stroke:#000000;stroke-linecap:square;stroke-width:0.8;"/>
    </g>
    <g id="text_45">
     <!-- 5 -->
     <g transform="translate(1186.001398 284.828246)scale(0.1 -0.1)">
      <use xlink:href="#DejaVuSans-35"/>
     </g>
    </g>
   </g>
   <g id="xtick_45">
    <g id="line2d_51">
     <path d="M 1172.946596 250.402743 
L 1180.175872 250.631255 
" style="fill:none;stroke:#000000;stroke-linecap:square;stroke-width:0.8;"/>
    </g>
    <g id="text_46">
     <!-- 6 -->
     <g transform="translate(1186.632839 255.062781)scale(0.1 -0.1)">
      <use xlink:href="#DejaVuSans-36"/>
     </g>
    </g>
   </g>
   <g id="xtick_46">
    <g id="line2d_52">
     <path d="M 1173.526118 220.314035 
L 1180.780875 220.533536 
" style="fill:none;stroke:#000000;stroke-linecap:square;stroke-width:0.8;"/>
    </g>
    <g id="text_47">
     <!-- 7 -->
     <g transform="translate(1187.268677 225.089979)scale(0.1 -0.1)">
      <use xlink:href="#DejaVuSans-37"/>
     </g>
    </g>
   </g>
  </g>
  <g id="axes_2">
   <g id="Poly3DCollection_2">
    <path clip-path="url(#pb853c0d509)" d="M 896.059017 421.769507 
L 894.528222 305.689601 
L 958.783505 307.908074 
L 959.443592 424.292595 
z
" style="fill:#1f77b4;"/>
    <path clip-path="url(#pb853c0d509)" d="M 887.509803 438.201526 
L 896.059017 421.769507 
L 959.443592 424.292595 
L 952.063473 440.820442 
z
" style="fill:#1f77b4;"/>
    <path clip-path="url(#pb853c0d509)" d="M 959.443592 424.292595 
L 958.615625 278.308022 
L 1023.471855 280.460145 
L 1023.194889 426.830281 
z
" style="fill:#1f77b4;"/>
    <path clip-path="url(#pb853c0d509)" d="M 952.063473 440.820442 
L 959.443592 424.292595 
L 1023.194889 426.830281 
L 1016.997685 443.454797 
z
" style="fill:#1f77b4;"/>
    <path clip-path="url(#pb853c0d509)" d="M 887.509803 438.201526 
L 885.829907 320.140926 
L 894.528222 305.689601 
L 896.059017 421.769507 
z
" style="fill:#1f77b4;"/>
    <path clip-path="url(#pb853c0d509)" d="M 1016.997685 443.454797 
L 1023.194889 426.830281 
L 1087.316097 429.382692 
L 1082.315814 446.104727 
z
" style="fill:#1f77b4;"/>
    <path clip-path="url(#pb853c0d509)" d="M 1023.194889 426.830281 
L 1023.528407 250.573797 
L 1088.995791 252.657669 
L 1087.316097 429.382692 
z
" style="fill:#1f77b4;"/>
    <path clip-path="url(#pb853c0d509)" d="M 952.063473 440.820442 
L 959.443592 424.292595 
L 958.783505 307.908074 
L 951.286926 322.444852 
z
" style="fill:#1f77b4;"/>
    <path clip-path="url(#pb853c0d509)" d="M 1082.315814 446.104727 
L 1087.316097 429.382692 
L 1151.810448 431.949956 
L 1148.021274 448.77037 
z
" style="fill:#1f77b4;"/>
    <path clip-path="url(#pb853c0d509)" d="M 952.063473 440.820442 
L 951.089363 292.328585 
L 958.615625 278.308022 
L 959.443592 424.292595 
z
" style="fill:#1f77b4;"/>
    <path clip-path="url(#pb853c0d509)" d="M 1087.316097 429.382692 
L 1089.282615 222.48007 
L 1155.371607 224.493731 
L 1151.810448 431.949956 
z
" style="fill:#1f77b4;"/>
    <path clip-path="url(#pb853c0d509)" d="M 1016.997685 443.454797 
L 1023.194889 426.830281 
L 1023.471855 280.460145 
L 1017.170261 294.564153 
z
" style="fill:#1f77b4;"/>
    <path clip-path="url(#pb853c0d509)" d="M 885.829907 320.140926 
L 951.286926 322.444852 
L 958.783505 307.908074 
L 894.528222 305.689601 
z
" style="fill:#1f77b4;"/>
    <path clip-path="url(#pb853c0d509)" d="M 887.509803 438.201526 
L 886.254285 349.965553 
L 951.483105 352.349974 
L 952.063473 440.820442 
z
" style="fill:#1f77b4;"/>
    <path clip-path="url(#pb853c0d509)" d="M 1016.997685 443.454797 
L 1017.205512 264.151138 
L 1023.528407 250.573797 
L 1023.194889 426.830281 
z
" style="fill:#1f77b4;"/>
    <path clip-path="url(#pb853c0d509)" d="M 887.509803 438.201526 
L 952.063473 440.820442 
L 951.286926 322.444852 
L 885.829907 320.140926 
z
" style="fill:#1f77b4;"/>
    <path clip-path="url(#pb853c0d509)" d="M 1082.315814 446.104727 
L 1087.316097 429.382692 
L 1088.995791 252.657669 
L 1083.921091 266.316344 
z
" style="fill:#1f77b4;"/>
    <path clip-path="url(#pb853c0d509)" d="M 878.633236 455.262737 
L 887.509803 438.201526 
L 952.063473 440.820442 
L 944.399918 457.983046 
z
" style="fill:#1f77b4;"/>
    <path clip-path="url(#pb853c0d509)" d="M 952.063473 440.820442 
L 951.286926 322.444852 
L 1017.135259 324.762552 
L 1016.997685 443.454797 
z
" style="fill:#1f77b4;"/>
    <path clip-path="url(#pb853c0d509)" d="M 1082.315814 446.104727 
L 1084.195336 235.601347 
L 1089.282615 222.48007 
L 1087.316097 429.382692 
z
" style="fill:#1f77b4;"/>
    <path clip-path="url(#pb853c0d509)" d="M 951.089363 292.328585 
L 1017.170261 294.564153 
L 1023.471855 280.460145 
L 958.615625 278.308022 
z
" style="fill:#1f77b4;"/>
    <path clip-path="url(#pb853c0d509)" d="M 952.063473 440.820442 
L 1016.997685 443.454797 
L 1017.170261 294.564153 
L 951.089363 292.328585 
z
" style="fill:#1f77b4;"/>
    <path clip-path="url(#pb853c0d509)" d="M 944.399918 457.983046 
L 952.063473 440.820442 
L 1016.997685 443.454797 
L 1010.561761 460.719699 
z
" style="fill:#1f77b4;"/>
    <path clip-path="url(#pb853c0d509)" d="M 1148.021274 448.77037 
L 1151.810448 431.949956 
L 1155.371607 224.493731 
L 1151.556663 237.694127 
z
" style="fill:#1f77b4;"/>
    <path clip-path="url(#pb853c0d509)" d="M 878.633236 455.262737 
L 877.258548 365.501759 
L 886.254285 349.965553 
L 887.509803 438.201526 
z
" style="fill:#1f77b4;"/>
    <path clip-path="url(#pb853c0d509)" d="M 1016.997685 443.454797 
L 1017.170261 294.564153 
L 1083.648794 296.813172 
L 1082.315814 446.104727 
z
" style="fill:#1f77b4;"/>
    <path clip-path="url(#pb853c0d509)" d="M 1010.561761 460.719699 
L 1016.997685 443.454797 
L 1082.315814 446.104727 
L 1077.122335 463.472846 
z
" style="fill:#1f77b4;"/>
    <path clip-path="url(#pb853c0d509)" d="M 944.399918 457.983046 
L 952.063473 440.820442 
L 951.483105 352.349974 
L 943.726128 367.979492 
z
" style="fill:#1f77b4;"/>
    <path clip-path="url(#pb853c0d509)" d="M 1016.997685 443.454797 
L 1082.315814 446.104727 
L 1083.921091 266.316344 
L 1017.205512 264.151138 
z
" style="fill:#1f77b4;"/>
    <path clip-path="url(#pb853c0d509)" d="M 1017.205512 264.151138 
L 1083.921091 266.316344 
L 1088.995791 252.657669 
L 1023.528407 250.573797 
z
" style="fill:#1f77b4;"/>
    <path clip-path="url(#pb853c0d509)" d="M 944.399918 457.983046 
L 943.498309 337.547928 
L 951.286926 322.444852 
L 952.063473 440.820442 
z
" style="fill:#1f77b4;"/>
    <path clip-path="url(#pb853c0d509)" d="M 1077.122335 463.472846 
L 1082.315814 446.104727 
L 1148.021274 448.77037 
L 1144.085257 466.242635 
z
" style="fill:#1f77b4;"/>
    <path clip-path="url(#pb853c0d509)" d="M 1082.315814 446.104727 
L 1083.921091 266.316344 
L 1151.040774 268.494664 
L 1148.021274 448.77037 
z
" style="fill:#1f77b4;"/>
    <path clip-path="url(#pb853c0d509)" d="M 877.258548 365.501759 
L 943.726128 367.979492 
L 951.483105 352.349974 
L 886.254285 349.965553 
z
" style="fill:#1f77b4;"/>
    <path clip-path="url(#pb853c0d509)" d="M 1010.561761 460.719699 
L 1016.997685 443.454797 
L 1017.135259 324.762552 
L 1010.609415 339.956936 
z
" style="fill:#1f77b4;"/>
    <path clip-path="url(#pb853c0d509)" d="M 1082.315814 446.104727 
L 1148.021274 448.77037 
L 1151.556663 237.694127 
L 1084.195336 235.601347 
z
" style="fill:#1f77b4;"/>
    <path clip-path="url(#pb853c0d509)" d="M 878.633236 455.262737 
L 877.720031 395.634526 
L 943.952324 398.194334 
L 944.399918 457.983046 
z
" style="fill:#1f77b4;"/>
    <path clip-path="url(#pb853c0d509)" d="M 1010.561761 460.719699 
L 1010.621544 309.221263 
L 1017.170261 294.564153 
L 1016.997685 443.454797 
z
" style="fill:#1f77b4;"/>
    <path clip-path="url(#pb853c0d509)" d="M 1084.195336 235.601347 
L 1151.556663 237.694127 
L 1155.371607 224.493731 
L 1089.282615 222.48007 
z
" style="fill:#1f77b4;"/>
    <path clip-path="url(#pb853c0d509)" d="M 878.633236 455.262737 
L 944.399918 457.983046 
L 943.726128 367.979492 
L 877.258548 365.501759 
z
" style="fill:#1f77b4;"/>
    <path clip-path="url(#pb853c0d509)" d="M 1077.122335 463.472846 
L 1082.315814 446.104727 
L 1083.648794 296.813172 
L 1078.387496 311.559482 
z
" style="fill:#1f77b4;"/>
    <path clip-path="url(#pb853c0d509)" d="M 943.498309 337.547928 
L 1010.609415 339.956936 
L 1017.135259 324.762552 
L 951.286926 322.444852 
z
" style="fill:#1f77b4;"/>
    <path clip-path="url(#pb853c0d509)" d="M 944.399918 457.983046 
L 943.726128 367.979492 
L 1010.597373 370.472272 
L 1010.561761 460.719699 
z
" style="fill:#1f77b4;"/>
    <path clip-path="url(#pb853c0d509)" d="M 1077.122335 463.472846 
L 1078.646046 280.514253 
L 1083.921091 266.316344 
L 1082.315814 446.104727 
z
" style="fill:#1f77b4;"/>
    <path clip-path="url(#pb853c0d509)" d="M 869.410145 472.989982 
L 878.633236 455.262737 
L 944.399918 457.983046 
L 936.436281 475.817688 
z
" style="fill:#1f77b4;"/>
    <path clip-path="url(#pb853c0d509)" d="M 944.399918 457.983046 
L 1010.561761 460.719699 
L 1010.609415 339.956936 
L 943.498309 337.547928 
z
" style="fill:#1f77b4;"/>
    <path clip-path="url(#pb853c0d509)" d="M 1144.085257 466.242635 
L 1148.021274 448.77037 
L 1151.040774 268.494664 
L 1147.078447 282.779557 
z
" style="fill:#1f77b4;"/>
    <path clip-path="url(#pb853c0d509)" d="M 869.410145 472.989982 
L 868.412213 412.317804 
L 877.720031 395.634526 
L 878.633236 455.262737 
z
" style="fill:#1f77b4;"/>
    <path clip-path="url(#pb853c0d509)" d="M 936.436281 475.817688 
L 944.399918 457.983046 
L 1010.561761 460.719699 
L 1003.873052 478.662718 
z
" style="fill:#1f77b4;"/>
    <path clip-path="url(#pb853c0d509)" d="M 1010.561761 460.719699 
L 1010.609415 339.956936 
L 1078.130812 342.380672 
L 1077.122335 463.472846 
z
" style="fill:#1f77b4;"/>
    <path clip-path="url(#pb853c0d509)" d="M 1010.621544 309.221263 
L 1078.387496 311.559482 
L 1083.648794 296.813172 
L 1017.170261 294.564153 
z
" style="fill:#1f77b4;"/>
    <path clip-path="url(#pb853c0d509)" d="M 936.436281 475.817688 
L 944.399918 457.983046 
L 943.952324 398.194334 
L 935.922027 414.979413 
z
" style="fill:#1f77b4;"/>
    <path clip-path="url(#pb853c0d509)" d="M 1010.561761 460.719699 
L 1077.122335 463.472846 
L 1078.387496 311.559482 
L 1010.621544 309.221263 
z
" style="fill:#1f77b4;"/>
    <path clip-path="url(#pb853c0d509)" d="M 1003.873052 478.662718 
L 1010.561761 460.719699 
L 1077.122335 463.472846 
L 1071.724245 481.525232 
z
" style="fill:#1f77b4;"/>
    <path clip-path="url(#pb853c0d509)" d="M 936.436281 475.817688 
L 935.662089 384.227709 
L 943.726128 367.979492 
L 944.399918 457.983046 
z
" style="fill:#1f77b4;"/>
    <path clip-path="url(#pb853c0d509)" d="M 868.412213 412.317804 
L 935.922027 414.979413 
L 943.952324 398.194334 
L 877.720031 395.634526 
z
" style="fill:#1f77b4;"/>
    <path clip-path="url(#pb853c0d509)" d="M 1077.122335 463.472846 
L 1078.387496 311.559482 
L 1146.570521 313.912093 
L 1144.085257 466.242635 
z
" style="fill:#1f77b4;"/>
    <path clip-path="url(#pb853c0d509)" d="M 1071.724245 481.525232 
L 1077.122335 463.472846 
L 1144.085257 466.242635 
L 1139.993692 484.405391 
z
" style="fill:#1f77b4;"/>
    <path clip-path="url(#pb853c0d509)" d="M 1003.873052 478.662718 
L 1010.561761 460.719699 
L 1010.597373 370.472272 
L 1003.836019 386.820299 
z
" style="fill:#1f77b4;"/>
    <path clip-path="url(#pb853c0d509)" d="M 1077.122335 463.472846 
L 1144.085257 466.242635 
L 1147.078447 282.779557 
L 1078.646046 280.514253 
z
" style="fill:#1f77b4;"/>
    <path clip-path="url(#pb853c0d509)" d="M 1078.646046 280.514253 
L 1147.078447 282.779557 
L 1151.040774 268.494664 
L 1083.921091 266.316344 
z
" style="fill:#1f77b4;"/>
    <path clip-path="url(#pb853c0d509)" d="M 869.410145 472.989982 
L 868.912979 442.763311 
L 936.180084 445.508604 
L 936.436281 475.817688 
z
" style="fill:#1f77b4;"/>
    <path clip-path="url(#pb853c0d509)" d="M 1003.873052 478.662718 
L 1003.823494 355.756871 
L 1010.609415 339.956936 
L 1010.561761 460.719699 
z
" style="fill:#1f77b4;"/>
    <path clip-path="url(#pb853c0d509)" d="M 869.410145 472.989982 
L 936.436281 475.817688 
L 935.922027 414.979413 
L 868.412213 412.317804 
z
" style="fill:#1f77b4;"/>
    <path clip-path="url(#pb853c0d509)" d="M 935.662089 384.227709 
L 1003.836019 386.820299 
L 1010.597373 370.472272 
L 943.726128 367.979492 
z
" style="fill:#1f77b4;"/>
    <path clip-path="url(#pb853c0d509)" d="M 1071.724245 481.525232 
L 1077.122335 463.472846 
L 1078.130812 342.380672 
L 1072.673411 358.278317 
z
" style="fill:#1f77b4;"/>
    <path clip-path="url(#pb853c0d509)" d="M 936.436281 475.817688 
L 935.922027 414.979413 
L 1003.848453 417.657447 
L 1003.873052 478.662718 
z
" style="fill:#1f77b4;"/>
    <path clip-path="url(#pb853c0d509)" d="M 1071.724245 481.525232 
L 1072.915086 326.897496 
L 1078.387496 311.559482 
L 1077.122335 463.472846 
z
" style="fill:#1f77b4;"/>
    <path clip-path="url(#pb853c0d509)" d="M 936.436281 475.817688 
L 1003.873052 478.662718 
L 1003.836019 386.820299 
L 935.662089 384.227709 
z
" style="fill:#1f77b4;"/>
    <path clip-path="url(#pb853c0d509)" d="M 859.819836 491.42304 
L 869.410145 472.989982 
L 936.436281 475.817688 
L 928.154582 494.364631 
z
" style="fill:#1f77b4;"/>
    <path clip-path="url(#pb853c0d509)" d="M 1139.993692 484.405391 
L 1144.085257 466.242635 
L 1146.570521 313.912093 
L 1142.453165 329.345604 
z
" style="fill:#1f77b4;"/>
    <path clip-path="url(#pb853c0d509)" d="M 859.819836 491.42304 
L 859.277454 460.660229 
L 868.912979 442.763311 
L 869.410145 472.989982 
z
" style="fill:#1f77b4;"/>
    <path clip-path="url(#pb853c0d509)" d="M 1003.823494 355.756871 
L 1072.673411 358.278317 
L 1078.130812 342.380672 
L 1010.609415 339.956936 
z
" style="fill:#1f77b4;"/>
    <path clip-path="url(#pb853c0d509)" d="M 1003.873052 478.662718 
L 1003.836019 386.820299 
L 1072.433509 389.428997 
L 1071.724245 481.525232 
z
" style="fill:#1f77b4;"/>
    <path clip-path="url(#pb853c0d509)" d="M 928.154582 494.364631 
L 936.436281 475.817688 
L 1003.873052 478.662718 
L 996.916367 497.324605 
z
" style="fill:#1f77b4;"/>
    <path clip-path="url(#pb853c0d509)" d="M 928.154582 494.364631 
L 936.436281 475.817688 
L 936.180084 445.508604 
L 927.862688 463.5165 
z
" style="fill:#1f77b4;"/>
    <path clip-path="url(#pb853c0d509)" d="M 1003.873052 478.662718 
L 1071.724245 481.525232 
L 1072.673411 358.278317 
L 1003.823494 355.756871 
z
" style="fill:#1f77b4;"/>
    <path clip-path="url(#pb853c0d509)" d="M 859.277454 460.660229 
L 927.862688 463.5165 
L 936.180084 445.508604 
L 868.912979 442.763311 
z
" style="fill:#1f77b4;"/>
    <path clip-path="url(#pb853c0d509)" d="M 928.154582 494.364631 
L 927.568631 432.43984 
L 935.922027 414.979413 
L 936.436281 475.817688 
z
" style="fill:#1f77b4;"/>
    <path clip-path="url(#pb853c0d509)" d="M 996.916367 497.324605 
L 1003.873052 478.662718 
L 1071.724245 481.525232 
L 1066.109209 500.303134 
z
" style="fill:#1f77b4;"/>
    <path clip-path="url(#pb853c0d509)" d="M 1071.724245 481.525232 
L 1072.673411 358.278317 
L 1141.954006 360.815535 
L 1139.993692 484.405391 
z
" style="fill:#1f77b4;"/>
    <path clip-path="url(#pb853c0d509)" d="M 1072.915086 326.897496 
L 1142.453165 329.345604 
L 1146.570521 313.912093 
L 1078.387496 311.559482 
z
" style="fill:#1f77b4;"/>
    <path clip-path="url(#pb853c0d509)" d="M 996.916367 497.324605 
L 1003.873052 478.662718 
L 1003.848453 417.657447 
L 996.839574 435.226882 
z
" style="fill:#1f77b4;"/>
    <path clip-path="url(#pb853c0d509)" d="M 1071.724245 481.525232 
L 1139.993692 484.405391 
L 1142.453165 329.345604 
L 1072.915086 326.897496 
z
" style="fill:#1f77b4;"/>
    <path clip-path="url(#pb853c0d509)" d="M 1066.109209 500.303134 
L 1071.724245 481.525232 
L 1139.993692 484.405391 
L 1135.737171 503.300394 
z
" style="fill:#1f77b4;"/>
    <path clip-path="url(#pb853c0d509)" d="M 859.819836 491.42304 
L 859.819836 491.42304 
L 928.154582 494.364631 
L 928.154582 494.364631 
z
" style="fill:#1f77b4;"/>
    <path clip-path="url(#pb853c0d509)" d="M 996.916367 497.324605 
L 996.800747 403.830621 
L 1003.836019 386.820299 
L 1003.873052 478.662718 
z
" style="fill:#1f77b4;"/>
    <path clip-path="url(#pb853c0d509)" d="M 927.568631 432.43984 
L 996.839574 435.226882 
L 1003.848453 417.657447 
L 935.922027 414.979413 
z
" style="fill:#1f77b4;"/>
    <path clip-path="url(#pb853c0d509)" d="M 859.819836 491.42304 
L 928.154582 494.364631 
L 927.862688 463.5165 
L 859.277454 460.660229 
z
" style="fill:#1f77b4;"/>
    <path clip-path="url(#pb853c0d509)" d="M 1066.109209 500.303134 
L 1071.724245 481.525232 
L 1072.433509 389.428997 
L 1066.769861 406.546244 
z
" style="fill:#1f77b4;"/>
    <path clip-path="url(#pb853c0d509)" d="M 928.154582 494.364631 
L 927.862688 463.5165 
L 996.878113 466.390686 
L 996.916367 497.324605 
z
" style="fill:#1f77b4;"/>
    <path clip-path="url(#pb853c0d509)" d="M 1066.109209 500.303134 
L 1066.993386 374.824478 
L 1072.673411 358.278317 
L 1071.724245 481.525232 
z
" style="fill:#1f77b4;"/>
    <path clip-path="url(#pb853c0d509)" d="M 928.154582 494.364631 
L 996.916367 497.324605 
L 996.839574 435.226882 
L 927.568631 432.43984 
z
" style="fill:#1f77b4;"/>
    <path clip-path="url(#pb853c0d509)" d="M 996.800747 403.830621 
L 1066.769861 406.546244 
L 1072.433509 389.428997 
L 1003.836019 386.820299 
z
" style="fill:#1f77b4;"/>
    <path clip-path="url(#pb853c0d509)" d="M 1135.737171 503.300394 
L 1139.993692 484.405391 
L 1141.954006 360.815535 
L 1137.673452 377.466422 
z
" style="fill:#1f77b4;"/>
    <path clip-path="url(#pb853c0d509)" d="M 849.839932 510.60492 
L 849.839932 510.60492 
L 859.819836 491.42304 
L 859.819836 491.42304 
z
" style="fill:#1f77b4;"/>
    <path clip-path="url(#pb853c0d509)" d="M 996.916367 497.324605 
L 996.839574 435.226882 
L 1066.548002 438.031525 
L 1066.109209 500.303134 
z
" style="fill:#1f77b4;"/>
    <path clip-path="url(#pb853c0d509)" d="M 849.839932 510.60492 
L 859.819836 491.42304 
L 928.154582 494.364631 
L 919.53538 513.667417 
z
" style="fill:#1f77b4;"/>
    <path clip-path="url(#pb853c0d509)" d="M 849.839932 510.60492 
L 919.53538 513.667417 
L 928.154582 494.364631 
L 859.819836 491.42304 
z
" style="fill:#1f77b4;"/>
    <path clip-path="url(#pb853c0d509)" d="M 919.53538 513.667417 
L 928.154582 494.364631 
L 928.154582 494.364631 
L 919.53538 513.667417 
z
" style="fill:#1f77b4;"/>
    <path clip-path="url(#pb853c0d509)" d="M 996.916367 497.324605 
L 1066.109209 500.303134 
L 1066.769861 406.546244 
L 996.800747 403.830621 
z
" style="fill:#1f77b4;"/>
    <path clip-path="url(#pb853c0d509)" d="M 919.53538 513.667417 
L 928.154582 494.364631 
L 996.916367 497.324605 
L 989.675273 516.749443 
z
" style="fill:#1f77b4;"/>
    <path clip-path="url(#pb853c0d509)" d="M 919.53538 513.667417 
L 919.205056 482.261034 
L 927.862688 463.5165 
L 928.154582 494.364631 
z
" style="fill:#1f77b4;"/>
    <path clip-path="url(#pb853c0d509)" d="M 1066.993386 374.824478 
L 1137.673452 377.466422 
L 1141.954006 360.815535 
L 1072.673411 358.278317 
z
" style="fill:#1f77b4;"/>
    <path clip-path="url(#pb853c0d509)" d="M 1066.109209 500.303134 
L 1066.769861 406.546244 
L 1137.183931 409.279136 
L 1135.737171 503.300394 
z
" style="fill:#1f77b4;"/>
    <path clip-path="url(#pb853c0d509)" d="M 989.675273 516.749443 
L 996.916367 497.324605 
L 1066.109209 500.303134 
L 1060.263879 519.851187 
z
" style="fill:#1f77b4;"/>
    <path clip-path="url(#pb853c0d509)" d="M 989.675273 516.749443 
L 996.916367 497.324605 
L 996.878113 466.390686 
L 989.608877 485.254187 
z
" style="fill:#1f77b4;"/>
    <path clip-path="url(#pb853c0d509)" d="M 1066.109209 500.303134 
L 1135.737171 503.300394 
L 1137.673452 377.466422 
L 1066.993386 374.824478 
z
" style="fill:#1f77b4;"/>
    <path clip-path="url(#pb853c0d509)" d="M 919.205056 482.261034 
L 989.608877 485.254187 
L 996.878113 466.390686 
L 927.862688 463.5165 
z
" style="fill:#1f77b4;"/>
    <path clip-path="url(#pb853c0d509)" d="M 989.675273 516.749443 
L 989.541978 453.520054 
L 996.839574 435.226882 
L 996.916367 497.324605 
z
" style="fill:#1f77b4;"/>
    <path clip-path="url(#pb853c0d509)" d="M 1060.263879 519.851187 
L 1066.109209 500.303134 
L 1135.737171 503.300394 
L 1131.305515 522.972837 
z
" style="fill:#1f77b4;"/>
    <path clip-path="url(#pb853c0d509)" d="M 849.839932 510.60492 
L 919.53538 513.667417 
L 919.53538 513.667417 
L 849.839932 510.60492 
z
" style="fill:#1f77b4;"/>
    <path clip-path="url(#pb853c0d509)" d="M 1060.263879 519.851187 
L 1066.109209 500.303134 
L 1066.548002 438.031525 
L 1060.667261 456.441608 
z
" style="fill:#1f77b4;"/>
    <path clip-path="url(#pb853c0d509)" d="M 1060.263879 519.851187 
L 1060.871263 424.373575 
L 1066.769861 406.546244 
L 1066.109209 500.303134 
z
" style="fill:#1f77b4;"/>
    <path clip-path="url(#pb853c0d509)" d="M 989.541978 453.520054 
L 1060.667261 456.441608 
L 1066.548002 438.031525 
L 996.839574 435.226882 
z
" style="fill:#1f77b4;"/>
    <path clip-path="url(#pb853c0d509)" d="M 919.53538 513.667417 
L 989.675273 516.749443 
L 989.608877 485.254187 
L 919.205056 482.261034 
z
" style="fill:#1f77b4;"/>
    <path clip-path="url(#pb853c0d509)" d="M 1131.305515 522.972837 
L 1135.737171 503.300394 
L 1137.183931 409.279136 
L 1132.731442 427.221201 
z
" style="fill:#1f77b4;"/>
    <path clip-path="url(#pb853c0d509)" d="M 989.675273 516.749443 
L 1060.263879 519.851187 
L 1060.667261 456.441608 
L 989.541978 453.520054 
z
" style="fill:#1f77b4;"/>
    <path clip-path="url(#pb853c0d509)" d="M 1060.871263 424.373575 
L 1132.731442 427.221201 
L 1137.183931 409.279136 
L 1066.769861 406.546244 
z
" style="fill:#1f77b4;"/>
    <path clip-path="url(#pb853c0d509)" d="M 1060.263879 519.851187 
L 1131.305515 522.972837 
L 1132.731442 427.221201 
L 1060.871263 424.373575 
z
" style="fill:#1f77b4;"/>
   </g>
   <g id="text_48">
    <!-- Not Shaded -->
    <g transform="translate(965.651591 120.290291)scale(0.12 -0.12)">
     <defs>
      <path d="M 628 4666 
L 1478 4666 
L 3547 763 
L 3547 4666 
L 4159 4666 
L 4159 0 
L 3309 0 
L 1241 3903 
L 1241 0 
L 628 0 
L 628 4666 
z
" id="DejaVuSans-4e" transform="scale(0.015625)"/>
      <path d="M 1959 3097 
Q 1497 3097 1228 2736 
Q 959 2375 959 1747 
Q 959 1119 1226 758 
Q 1494 397 1959 397 
Q 2419 397 2687 759 
Q 2956 1122 2956 1747 
Q 2956 2369 2687 2733 
Q 2419 3097 1959 3097 
z
M 1959 3584 
Q 2709 3584 3137 3096 
Q 3566 2609 3566 1747 
Q 3566 888 3137 398 
Q 2709 -91 1959 -91 
Q 1206 -91 779 398 
Q 353 888 353 1747 
Q 353 2609 779 3096 
Q 1206 3584 1959 3584 
z
" id="DejaVuSans-6f" transform="scale(0.015625)"/>
      <path d="M 1172 4494 
L 1172 3500 
L 2356 3500 
L 2356 3053 
L 1172 3053 
L 1172 1153 
Q 1172 725 1289 603 
Q 1406 481 1766 481 
L 2356 481 
L 2356 0 
L 1766 0 
Q 1100 0 847 248 
Q 594 497 594 1153 
L 594 3053 
L 172 3053 
L 172 3500 
L 594 3500 
L 594 4494 
L 1172 4494 
z
" id="DejaVuSans-74" transform="scale(0.015625)"/>
      <path id="DejaVuSans-20" transform="scale(0.015625)"/>
     </defs>
     <use xlink:href="#DejaVuSans-4e"/>
     <use x="74.804688" xlink:href="#DejaVuSans-6f"/>
     <use x="135.986328" xlink:href="#DejaVuSans-74"/>
     <use x="175.195312" xlink:href="#DejaVuSans-20"/>
     <use x="206.982422" xlink:href="#DejaVuSans-53"/>
     <use x="270.458984" xlink:href="#DejaVuSans-68"/>
     <use x="333.837891" xlink:href="#DejaVuSans-61"/>
     <use x="395.117188" xlink:href="#DejaVuSans-64"/>
     <use x="458.59375" xlink:href="#DejaVuSans-65"/>
     <use x="520.117188" xlink:href="#DejaVuSans-64"/>
    </g>
   </g>
  </g>
 </g>
 <defs>
  <clipPath id="p2332474d57">
   <rect height="486.981818" width="486.981818" x="172.8" y="126.290291"/>
  </clipPath>
  <clipPath id="pb853c0d509">
   <rect height="486.981818" width="486.981818" x="757.178182" y="126.290291"/>
  </clipPath>
 </defs>
</svg>
